<svg xmlns="http://www.w3.org/2000/svg" viewBox="0 0 209 104"><defs><style>.cls-1{fill:#595757;}.cls-2{fill:#009fd1;}</style></defs><g id="圖層_5" data-name="圖層 5"><g id="圖層_4-2" data-name="圖層 4"><path class="cls-1" d="M4.65,72.74a2.85,2.85,0,0,1,2.84,2.45v.24H9v-.35a4.19,4.19,0,0,0-4.37-3.69,4.48,4.48,0,0,0-3.19,1.29C.24,73.86.24,75.08.24,77.7s0,3.84,1.18,5A4.54,4.54,0,0,0,4.61,84,4.19,4.19,0,0,0,9,80.32V80H7.56v.22a2.92,2.92,0,0,1-4.92,1.62c-.78-.77-.83-1.64-.83-4.13s0-3.34.83-4.11A2.87,2.87,0,0,1,4.65,72.74Z"/><path class="cls-1" d="M12.69,75.21a3.34,3.34,0,0,0-2.43,1,6,6,0,0,0,0,6.88,3.39,3.39,0,0,0,2.45,1,3.36,3.36,0,0,0,2.44-1,4.7,4.7,0,0,0,1.09-3.45,4.67,4.67,0,0,0-1.09-3.43A3.33,3.33,0,0,0,12.69,75.21Zm2.18,4.37a3.55,3.55,0,0,1-.63,2.49,2.19,2.19,0,0,1-2.93,0,3.5,3.5,0,0,1-.63-2.49,3.55,3.55,0,0,1,.63-2.49,2.11,2.11,0,0,1,2.93,0h0a3.43,3.43,0,0,1,.54,2.53Z"/><path class="cls-1" d="M25.61,75.21a3.49,3.49,0,0,0-2.73,1.24,3,3,0,0,0-2.6-1.24,3.43,3.43,0,0,0-2.18.68v-.57H16.77v8.73h1.42V78.59a1.86,1.86,0,0,1,1.49-2.16,2.07,2.07,0,0,1,.5,0c1.26,0,1.92.72,1.92,2.18v5.29h1.42V78.59a1.82,1.82,0,0,1,1.69-2h.29c1.29,0,1.95.72,1.95,2.18V84.1h1.39V78.59a3.26,3.26,0,0,0-.91-2.44A3.34,3.34,0,0,0,25.61,75.21Z"/><path class="cls-1" d="M38.6,75.21a3.46,3.46,0,0,0-2.71,1.24,3.05,3.05,0,0,0-2.59-1.24,3.44,3.44,0,0,0-2.19.68v-.57H29.69v8.73h1.42V78.59a1.87,1.87,0,0,1,1.49-2.16,2.1,2.1,0,0,1,.5,0c1.29,0,1.94.72,1.94,2.18v5.29h1.42V78.59a1.83,1.83,0,0,1,1.69-2h.3c1.29,0,1.92.72,1.92,2.18V84.1h1.42V78.59A3.06,3.06,0,0,0,39,75.3h-.45Z"/><path class="cls-1" d="M45.85,75.21a3.35,3.35,0,0,0-2.45,1,4.7,4.7,0,0,0-1.07,3.43,4.73,4.73,0,0,0,1.07,3.45,3.35,3.35,0,0,0,2.45,1,3.28,3.28,0,0,0,2.42-1,4.62,4.62,0,0,0,1.09-3.45,4.62,4.62,0,0,0-1.09-3.45A3.36,3.36,0,0,0,45.85,75.21Zm0,1.33a2.19,2.19,0,0,1,1.46.59h0A3.39,3.39,0,0,1,48,79.62a3.5,3.5,0,0,1-.63,2.49,2.19,2.19,0,0,1-2.93,0,4.7,4.7,0,0,1-.17-5A2.07,2.07,0,0,1,45.85,76.54Z"/><path class="cls-1" d="M53.4,75.21a3.22,3.22,0,0,0-2.07.68v-.57H49.89v8.73h1.44V78.59c0-1.37.7-2.18,2-2.18s2,.72,2,2.18v5.29h1.53V78.59A3.06,3.06,0,0,0,54,75.3h-.46Z"/><polygon class="cls-1" points="68.14 71.48 65.85 80.95 63.36 71.69 63.31 71.48 61.94 71.48 59.41 80.95 57.16 71.69 57.12 71.48 55.56 71.48 58.69 83.94 60.04 83.94 62.62 74.4 65.21 83.94 66.57 83.94 69.67 71.48 68.14 71.48"/><path class="cls-1" d="M74,81.8a2.55,2.55,0,0,1-2,.9c-1.79,0-2.18-1.35-2.33-2.6h5.59v-.68c0-2.59-1.36-4.21-3.52-4.21s-3.49,1.66-3.49,4.37,1.31,4.36,3.69,4.36A4,4,0,0,0,75,82.63l.24-.24-1.09-.85Zm-.2-3H69.67a2.63,2.63,0,0,1,.19-1.11,2,2,0,0,1,3.65,0A3.08,3.08,0,0,1,73.79,78.83Z"/><path class="cls-1" d="M79.14,75.21a3.27,3.27,0,0,0-3,1.35l-.18.22L77,77.7l.18-.26a2,2,0,0,1,2-.9c1.42,0,2,.48,2,1.68v.61H78.82c-1.9,0-3.1,1-3.1,2.6a2.55,2.55,0,0,0,.67,1.77A3.22,3.22,0,0,0,79,84a3.31,3.31,0,0,0,2.18-.57v.48h1.42v-5.8C82.55,76.8,82,75.21,79.14,75.21Zm2,5.57a1.77,1.77,0,0,1-.37,1.33,2.39,2.39,0,0,1-1.79.55c-1.6,0-1.81-.64-1.81-1.29S77.33,80,78.92,80h2.19Z"/><path class="cls-1" d="M84.88,81.54V71.48H83.47V81.56a2.17,2.17,0,0,0,2,2.37h1.23V82.61H85.8C85.15,82.61,84.88,82.35,84.88,81.54Z"/><path class="cls-1" d="M88.27,72.74H86.85v2.58H85.74v1.2h1.11v5a2.18,2.18,0,0,0,2,2.39H90V82.61h-.88c-.65,0-.94-.33-.94-1v-5H90v-1.2H88.22Z"/><path class="cls-1" d="M93.88,75.21a3.41,3.41,0,0,0-2.18.68V71.52H90.28V84H91.7v-5.4a1.86,1.86,0,0,1,1.49-2.16,2,2,0,0,1,.49,0c1.27,0,1.92.72,1.92,2.18v5.29H97V78.59a3,3,0,0,0-2.71-3.36A3.1,3.1,0,0,0,93.88,75.21Z"/><polygon class="cls-1" points="105.63 78.35 111 78.35 111 76.98 105.63 76.98 105.63 72.85 111.93 72.85 111.93 71.48 104.16 71.48 104.16 83.94 111.93 83.94 111.93 82.57 105.63 82.57 105.63 78.35"/><path class="cls-1" d="M117.48,81.78a2.33,2.33,0,0,1-3.27.49,2.53,2.53,0,0,1-.49-.49,5,5,0,0,1,0-4.36,2.37,2.37,0,0,1,3.76,0l.2.22,1-.92-.2-.21a3.38,3.38,0,0,0-2.77-1.27c-2.36,0-3.82,1.7-3.82,4.37s1.46,4.36,3.82,4.36a3.4,3.4,0,0,0,2.86-1.33l.2-.22-1-.89Z"/><path class="cls-1" d="M121.91,75.21a3.38,3.38,0,0,0-2.44,1,5.93,5.93,0,0,0,0,6.88,3.56,3.56,0,0,0,4.86,0,4.76,4.76,0,0,0,1.1-3.45,4.71,4.71,0,0,0-1-3.43A3.31,3.31,0,0,0,121.91,75.21Zm2.18,4.37a3.5,3.5,0,0,1-.63,2.49,2.19,2.19,0,0,1-2.95,0,3.67,3.67,0,0,1-.63-2.49,3.6,3.6,0,0,1,.63-2.47A2,2,0,0,1,122,76.5a2,2,0,0,1,1.46.61h0a3.43,3.43,0,0,1,.55,2.51Z"/><path class="cls-1" d="M129.49,75.21a3.44,3.44,0,0,0-2.19.68v-.57H126v8.73h1.42V78.59a1.86,1.86,0,0,1,1.49-2.16,2.1,2.1,0,0,1,.5,0c1.29,0,1.94.72,1.94,2.18v5.29h1.42V78.59a3.32,3.32,0,0,0-.92-2.44A3.19,3.19,0,0,0,129.49,75.21Z"/><path class="cls-1" d="M136.71,75.21a3.38,3.38,0,0,0-2.44,1,4.67,4.67,0,0,0-1.09,3.43,4.7,4.7,0,0,0,1.09,3.45,3.59,3.59,0,0,0,4.89,0,4.9,4.9,0,0,0,1.09-3.45,4.71,4.71,0,0,0-1.09-3.43A3.43,3.43,0,0,0,136.71,75.21Zm2.19,4.37a3.42,3.42,0,0,1-.64,2.49,2.18,2.18,0,0,1-2.92,0,3.46,3.46,0,0,1-.64-2.49,3.41,3.41,0,0,1,.66-2.43,2.06,2.06,0,0,1,2.9,0l0,0h0a3.42,3.42,0,0,1,.52,2.47Z"/><path class="cls-1" d="M149.64,75.21a3.49,3.49,0,0,0-2.73,1.24,3.08,3.08,0,0,0-2.6-1.24,3.43,3.43,0,0,0-2.18.68v-.57h-1.42v8.73h1.42V78.59a1.86,1.86,0,0,1,1.49-2.16,2,2,0,0,1,.49,0c1.27,0,1.93.72,1.93,2.18v5.29h1.41V78.59a1.84,1.84,0,0,1,1.7-2h.29c1.29,0,1.92.72,1.92,2.18V84.1h1.47V78.59A3.06,3.06,0,0,0,150,75.3h-.43Z"/><rect class="cls-1" x="153.79" y="75.32" width="1.42" height="8.62"/><rect class="cls-1" x="153.7" y="71.48" width="1.62" height="1.62"/><polygon class="cls-1" points="169.68 72.85 175.99 72.85 175.99 71.48 168.22 71.48 168.22 83.94 169.68 83.94 169.68 78.55 175.05 78.55 175.05 77.17 169.68 77.17 169.68 72.85"/><path class="cls-1" d="M179,75.21a3.38,3.38,0,0,0-2.44,1,4.66,4.66,0,0,0-1.09,3.43,4.7,4.7,0,0,0,1.09,3.45,3.57,3.57,0,0,0,4.87,0,4.7,4.7,0,0,0,1.09-3.45,4.66,4.66,0,0,0-1.09-3.43A3.34,3.34,0,0,0,179,75.21Zm2.19,4.37a3.51,3.51,0,0,1-.64,2.49,2.18,2.18,0,0,1-2.94,0,3.59,3.59,0,0,1-.79-2.45,3.55,3.55,0,0,1,.61-2.47,2.19,2.19,0,0,1,3,0h0a3.47,3.47,0,0,1,.81,2.47Z"/><path class="cls-1" d="M194.15,80.6a1.85,1.85,0,0,1-1.49,2.16,2,2,0,0,1-.49,0c-1.6,0-1.93-1.16-1.93-2.19V75.32H188.8v.85h0a2.77,2.77,0,0,0-2.18-.85,3.3,3.3,0,0,0-2.07.7v-.7h-1.42v8.73h1.42V78.81a1.94,1.94,0,0,1,1.68-2.17h.19a1.56,1.56,0,0,1,1.31.55l.2.21.92-.94v4.37a3.41,3.41,0,0,0,5.46,2.62V84h1.41V75.3h-1.41Z"/><path class="cls-1" d="M205.44,75.21a3.37,3.37,0,0,0-2.71,1.24,3.08,3.08,0,0,0-2.62-1.24,3.43,3.43,0,0,0-2.18.68v-.57h-1.42v8.73h1.42V78.59a1.86,1.86,0,0,1,1.49-2.16,2.07,2.07,0,0,1,.5,0c1.26,0,1.92.72,1.92,2.18v5.29h1.44V78.59a1.81,1.81,0,0,1,1.64-2h.32c1.29,0,1.95.72,1.95,2.18V84.1h1.39V78.59a3.26,3.26,0,0,0-.91-2.44A3.34,3.34,0,0,0,205.44,75.21Z"/><path class="cls-1" d="M159.64,76.72a2.17,2.17,0,0,1,1.85.91l.2.22,1-.91-.19-.22a3.38,3.38,0,0,0-2.86-1.33c-2.36,0-3.82,1.7-3.82,4.36s1.46,4.37,3.82,4.37A3.43,3.43,0,0,0,162.5,83l.19-.22-1-.89-.2.19a2.33,2.33,0,0,1-3.75,0,4.79,4.79,0,0,1,0-4.36A2.17,2.17,0,0,1,159.64,76.72Z"/><path class="cls-2" d="M76.68,97.41l-1.31-.19a2.88,2.88,0,0,1-1.29-.53,1.4,1.4,0,0,1-.44-1.09c0-1,.74-1.79,2.18-1.79a3.49,3.49,0,0,1,2.54.9l1.11-1.12a4.88,4.88,0,0,0-3.58-1.31,3.42,3.42,0,0,0-3.84,3.39,2.9,2.9,0,0,0,.83,2.18,4.17,4.17,0,0,0,2.18.92l1.35.19a2,2,0,0,1,1.27.48,1.59,1.59,0,0,1,.46,1.2c0,1.14-.87,1.77-2.38,1.77a3.86,3.86,0,0,1-3-1.09l-1.16,1.16a5.22,5.22,0,0,0,4.09,1.5c2.42,0,4.14-1.24,4.14-3.38a3,3,0,0,0-1-2.36A3.73,3.73,0,0,0,76.68,97.41Z"/><path class="cls-2" d="M88.51,100a2.19,2.19,0,0,1-1.84,2.48,2.63,2.63,0,0,1-.56,0,2.19,2.19,0,0,1-2.39-2,1.89,1.89,0,0,1,0-.53v-7.6H82V100a4.15,4.15,0,0,0,8.28,0V92.37H88.51Z"/><polygon class="cls-2" points="98.22 99.58 94.86 92.37 93.09 92.37 93.09 103.94 94.86 103.94 94.86 96.21 97.59 101.84 98.88 101.84 101.54 96.21 101.54 103.94 103.29 103.94 103.29 92.37 101.54 92.37 98.22 99.58"/><polygon class="cls-2" points="111.43 99.58 108.05 92.37 106.3 92.37 106.3 103.94 108.05 103.94 108.05 96.21 110.78 101.84 112.09 101.84 114.75 96.21 114.75 103.94 116.5 103.94 116.5 92.37 114.75 92.37 111.43 99.58"/><polygon class="cls-2" points="119.51 103.94 126.89 103.94 126.89 102.37 121.26 102.37 121.26 98.9 126.06 98.9 126.06 97.33 121.26 97.33 121.26 93.94 126.89 93.94 126.89 92.37 119.51 92.37 119.51 103.94"/><path class="cls-2" d="M137.37,95.75a3.32,3.32,0,0,0-3.24-3.39h-4.84v11.57H131V99.07h2.19l2.44,4.87h2L135,98.83A3.05,3.05,0,0,0,137.37,95.75ZM131,97.59V93.88h2.6a1.83,1.83,0,0,1,.4,3.64,1.34,1.34,0,0,1-.4,0Z"/><rect class="cls-2" x="142.11" y="97.17" width="65.67" height="0.46"/><rect class="cls-2" x="1.27" y="97.17" width="65.67" height="0.46"/><path class="cls-1" d="M132.67,67.07h2.73c19.3-.66,34.89-15.44,34.89-33.51S154.7.72,135.36,0h-2.69C113.38.72,97.9,15.5,97.9,33.56S113.38,66.41,132.67,67.07Zm-31-20h10.09c2.94,9.21,8.73,16.24,16,18.91A35.36,35.36,0,0,1,101.63,47.07Zm67.94-13.8H158.44a44.6,44.6,0,0,0-2.19-13.36H166.3A30.59,30.59,0,0,1,169.57,33.27Zm-35.83,13.8V66.48c-9.49-.18-17.66-8.1-21.35-19.41Zm-21.57-.68a44.26,44.26,0,0,1-1.87-12.53h23.44V46.39Zm22.16.68h21.36C152,58.38,143.83,66.3,134.33,66.48Zm0-.68V33.86h23.45a43.23,43.23,0,0,1-1.88,12.53Zm24-12.53h11.13a30.45,30.45,0,0,1-2.79,12.53H156.58a45.46,45.46,0,0,0,1.86-12.53Zm-.66-.59H134.33V19.91h21.31a43.28,43.28,0,0,1,2.14,13.36Zm-23.36-14V.65c9.28.16,17.27,7.71,21.09,18.58Zm-.59,0H112.68C116.48,8.36,124.44.81,133.74.65Zm0,.68V33.27H110.3a43.62,43.62,0,0,1,2.18-13.36Zm-24,13.36H98.51a30.7,30.7,0,0,1,3.21-13.36h10.06a44,44,0,0,0-2.12,13.36Zm0,.59a43.89,43.89,0,0,0,1.85,12.53H101.3a30.45,30.45,0,0,1-2.79-12.53ZM140.38,66c7.16-2.67,13.1-9.7,16-18.91h10.09A35.38,35.38,0,0,1,140.38,66ZM166,19.23H156.1c-3-8.73-8.73-15.5-15.72-18.07A35.43,35.43,0,0,1,166,19.23ZM127.7,1.16c-7,2.57-12.69,9.28-15.7,18.07H102A35.47,35.47,0,0,1,127.7,1.16Z"/><polygon class="cls-1" points="102.5 8.6 105.8 8.6 105.8 6.4 96.72 6.44 96.72 8.58 100.06 8.58 88.7 46.57 79.19 8.54 82.33 8.56 82.35 6.4 65.67 6.35 65.67 8.51 68.6 8.51 75.39 33.4 69.62 48.38 59.84 8.49 62.75 8.51 62.75 6.35 46.29 6.31 46.29 8.47 49.32 8.47 63.25 60.21 63.36 60.63 67.33 60.65 76.39 37.03 82.85 60.67 86.83 60.69 102.5 8.6"/><path class="cls-1" d="M8.36,52.7a28.83,28.83,0,0,0,8.74,5.77,26.69,26.69,0,0,0,10.39,2.18A22.84,22.84,0,0,0,32,60.23c1.37-.26,2.68-.54,3.91-.87l3.14-.87a4.58,4.58,0,0,1,3.3-.13,2.17,2.17,0,0,1,.63.94l.15.34h2.19V43.1H43.14l-.11.43a24.47,24.47,0,0,1-2,5.59,19.66,19.66,0,0,1-3.3,4.74,16,16,0,0,1-4.48,3.3,12.58,12.58,0,0,1-5.63,1.24,18.62,18.62,0,0,1-6.77-1.11,9.51,9.51,0,0,1-4.49-3.82,21.32,21.32,0,0,1-2.62-7.62,75.87,75.87,0,0,1-.85-12.32c0-3.77.15-7.29.43-10.45A25.17,25.17,0,0,1,15.29,15a11.62,11.62,0,0,1,4.36-5.17,14.94,14.94,0,0,1,8-1.86,13.12,13.12,0,0,1,6.25,1.33,13.64,13.64,0,0,1,4.23,3.47A20.81,20.81,0,0,1,41,17.47c.7,1.65,1.33,3.34,1.9,5l.13.4h1.92V7H42.73l-.11.45c-.15.68-.35.83-.42.88a3.16,3.16,0,0,1-1.26.17,7.42,7.42,0,0,1-2.19-.39l-3.07-.92c-1.18-.32-2.43-.63-3.72-.91a21.29,21.29,0,0,0-4.36-.44,25.84,25.84,0,0,0-9.63,2A29,29,0,0,0,2.69,22,25.73,25.73,0,0,0,2.3,44.12,28,28,0,0,0,8.36,52.7Z"/><path class="cls-1" d="M165.14,6.92V9.1h6.55V57.33h-6.55v2.18h25V57.33h-6.72V34.56h4.37a8.7,8.7,0,0,1,4,.81,8.13,8.13,0,0,1,2.66,2.18,10.66,10.66,0,0,1,1.75,3.25,36.72,36.72,0,0,1,1.18,4v.44h2V21.66h-2v.46A25.55,25.55,0,0,1,196,26.48a11.47,11.47,0,0,1-1.92,3.23,8,8,0,0,1-2.84,2,11.44,11.44,0,0,1-4.37.72h-3.49V9.06h10.35a14,14,0,0,1,4.8.76A10.56,10.56,0,0,1,202.08,12a14.28,14.28,0,0,1,2.68,3.45,32.82,32.82,0,0,1,2.19,4.6l.15.37H209V6.92Z"/><path class="cls-2" d="M158.11,42.75h-1.55V43a26.54,26.54,0,0,1-2.05,5.74,18.19,18.19,0,0,1-3.37,4.65,15.19,15.19,0,0,1-4.62,3.06,15.57,15.57,0,0,1-5.88,1.09H129.07V34.36h4.5a9.24,9.24,0,0,1,4.08.83,8.19,8.19,0,0,1,2.73,2.19,11.33,11.33,0,0,1,1.79,3.34c.44,1.28.85,2.62,1.18,4V45h1.55V21.83h-1.55v.26a25.49,25.49,0,0,1-1.29,4.37,12.19,12.19,0,0,1-1.94,3.3,8.06,8.06,0,0,1-3,2.18,11.82,11.82,0,0,1-4.36.72h-3.72V8.84h12.82a12.4,12.4,0,0,1,5.83,1.29,13.6,13.6,0,0,1,4,3.08,15.53,15.53,0,0,1,2.38,3.62,22.05,22.05,0,0,1,1.2,3.1v.24h1.55V7.07H111.34V8.78h6.55V57.55h-7.35v1.7h47.57Z"/></g></g></svg>