<svg id="圖層_1" data-name="圖層 1" xmlns="http://www.w3.org/2000/svg" viewBox="0 0 794 38"><defs><style>.cls-1{fill:#595757;}</style></defs><path class="cls-1" d="M33.23,7.7V9.42H.05V7.7H10.22A46.79,46.79,0,0,0,6.71,1.65l1-.88a33.74,33.74,0,0,1,5.91,5.87L11.93,7.7h8.54c1-2.09,1.9-4.76,2.63-7l3.54,1.56A34.36,34.36,0,0,1,22.37,7.7Zm-30.48,5H16.47V33c0,3.58-3.13,4.54-8.27,2.63l.23-1.37c4.15.38,4.68.19,4.68-2.06V26.45H6.18V36.66H2.75Zm3.43,1.72V18.9h6.93V14.45Zm6.93,10.28V20.62H6.18v4.11Zm10,5.15H19.9V13.23h3.2ZM27,11.48h3.42V33c0,3.89-3.08,4.92-9.22,2.48l.27-1.37c4.84.53,5.53.38,5.53-1.72Z"/><path class="cls-1" d="M91.88,17.88v1.6H75C74.51,28.89,71.5,34,69.21,36.74l-1.07-.8c2-3.13,3.58-8.58,3.58-18.79v-7a21.94,21.94,0,0,1-2.28,1.41l-.27-.46v20h-6.4v3.12h-3.2V3.93h9.6v6.25A21.62,21.62,0,0,0,75.42.77L79,2a20.76,20.76,0,0,1-1.25,2.1h4.46l1.06-.46,3,1.9a17,17,0,0,1-3.66,3h9.22v1.68H86.17v1.75c0,.69.11,1,1.44,1a4.35,4.35,0,0,0,3-.72l1.14,2.06c-.92.8-2.48.95-4.65.95-3,0-3.81-.38-3.81-3.5V10.18H80.91a8.26,8.26,0,0,1-5.49,7.05L75,16.54v1.34h7.24c-.57-1.41-1.33-3-1.87-4.08l.8-.72A17.09,17.09,0,0,1,84.87,17l-1.45.88ZM66.05,5.65H62.77v6.43h3.28Zm0,8.15H62.77v6.78h3.28Zm0,8.5H62.77v7.12h3.28ZM73.82,8.5h6.55a16.18,16.18,0,0,0,1.72-2.74H76.45A22.19,22.19,0,0,1,73.82,8.5Zm4.23,1.68H75V16A7.42,7.42,0,0,0,78.05,10.18ZM75.31,28.51H90.39v8H87.27V34.45H78.43v2.13H75.31Zm15-5.57h-15V21.42h15Zm-15,1.95h15v1.52h-15ZM78.43,33h8.84V30H78.43Z"/><path class="cls-1" d="M151.06,31.48l-1.33,3.69c-4.8.27-9.56.39-14.36.31-8.65-.12-12.65-4.27-14.33-8.5a19,19,0,0,1-3.81,9.64l-1.11-.76c2.25-5,2.25-9.87,2.14-17.18l3.16.11c0,2,0,3.85-.11,5.53a14.53,14.53,0,0,0,2.13,3.54V15.51h-6.52V13.84h6.14v-5h-5.34V7.25h5.34V1.34h3.2V7.25h5V8.2A22.74,22.74,0,0,0,134.45,1l2.82.72a14.37,14.37,0,0,1-1,2.44h12.38a79.22,79.22,0,0,1-.42,9.49c-.45,3.43-4.38,3.24-7.24,1.33l.35-1.14c3.24.65,4,.38,4.15-.8a62.76,62.76,0,0,0,.3-7.35H135.4a17.12,17.12,0,0,1-1.41,2h1.26V11H137a19.51,19.51,0,0,0,.38-4.31l2.66.12a19,19,0,0,1-.38,4.19h2.14V7.63h2.32V12.5h-4.91A6.58,6.58,0,0,1,136.09,16l1.48.5a11.49,11.49,0,0,1-.87,1.71h12.08c-.08,4.23-.23,7.09-.46,9.41-.38,3.81-4,3.55-7.39,1.83l.26-1.22c3.66.57,4.27.34,4.42-1.07.19-2,.27-4.07.31-7.46H135.71a16.08,16.08,0,0,1-1.64,1.94h1V25h1.75a23.31,23.31,0,0,0,.31-4.42l2.66,0a18.5,18.5,0,0,1-.45,4.38h2.32V21.61h2.51v4.91h-5.29c-1.3,3.36-3.89,4.5-7.51,5L131,30.3c2.9-.88,4.61-1.53,5.45-3.78h-3.85V23A18.46,18.46,0,0,1,130,24.89l-.64-1a20,20,0,0,0,5.18-7.24c-.73.23-1.49.46-2.36.65l-.35-1.22c2.4-.87,3.89-1.79,4.73-3.62h-3.43V8.69A22.37,22.37,0,0,1,130.45,11l-.76-.88c.38-.38.72-.8,1.07-1.22h-4.5v5h5.79v1.67h-5.41v5h4.23v1.64h-4.23v8.35a18.88,18.88,0,0,0,8.73,1.79A117.79,117.79,0,0,0,151.06,31.48Z"/><path class="cls-1" d="M191.8,24.39h14.29a48.19,48.19,0,0,1-1.6,9.26c-1,2.93-5,4.53-11.7-.19l.61-1.22c5.64,1.83,7.2,1.6,7.78-.11a35.24,35.24,0,0,0,1-6h-10.9c-2.33,6.59-8.5,10-15.78,10.85l-.38-1.33c5.91-1.41,10.44-4.08,12.42-9.52H177V24.39h11.09a24.88,24.88,0,0,0,.45-2.74l3.66.27A16.11,16.11,0,0,1,191.8,24.39Zm-11-14.55h-4.5V8.12h6.82V6h-5.63V4.27h5.63v-3h3.28v3h5.26V6h-5.26V8.12h6.33V9.84h-4.23c0,1.29.34,1.64,1.41,1.64a2.62,2.62,0,0,0,2.24-.69l1.19,1.83q-1,1.14-4.35,1.14a4,4,0,0,1-2.55-.53v2.28h4.88v1.72h-4.88V19c2.25-.15,4.3-.34,6.1-.53l.22,1.33A100.18,100.18,0,0,1,177,22.52l-.61-3.08c2.4,0,4.77-.12,7-.27V17.23H178.2V15.51h5.15V12.62H186a4.61,4.61,0,0,1-.23-1.64V9.84h-1.9c-.69,2.78-3.24,4.87-8,5.67l-.39-1.18C179.35,13,180.3,11.67,180.83,9.84Zm24.42,12.08c-1.9-1-2.82-2.86-3.27-5.49l-2.06,2.25c-.65-.88-1.3-1.68-1.91-2.4a12.23,12.23,0,0,1-4.53,5.64l-1-1a12.38,12.38,0,0,0,3.43-7.12c-.84-.88-1.75-1.75-2.78-2.74l.69-1.15c.83.42,1.63.88,2.4,1.34.07-1.07.11-2.25.15-3.55h-3.13V6h3.17V1.3h3.27c0,1.68,0,3.24,0,4.69h5.07c0,6.06,0,11.16,1.14,12.34.81.88.92.12.88-5.29h1.37C209.83,21.08,208.22,23.48,205.25,21.92Zm-3.39-6.25a62.55,62.55,0,0,1-.34-8h-2a42.77,42.77,0,0,1-.61,5.41A23.88,23.88,0,0,1,201.86,15.67Z"/><path class="cls-1" d="M250.49,21.42a2.83,2.83,0,0,1-2.82-2.74,2.78,2.78,0,0,1,2.82-2.75,2.75,2.75,0,1,1,0,5.49Z"/><path class="cls-1" d="M306.4,28.47l.57,1.26c-3.05,2-9.38,4.38-14.29,5.75l-1.14-3.81c.68-.08,1.37-.19,2-.31V18.52h3V30.87c.64-.12,1.29-.23,1.9-.38V14.75H294V3.28h11.36V14.75h-3.58v6.44h4.84v1.72h-4.84v6.85C303.46,29.34,305.06,28.93,306.4,28.47ZM297.1,13h5.1V5h-5.1Zm29.45,1.29-1.94,3.28c-3.55-1.37-6.78-4.69-8.65-9.53h-1.64a20.79,20.79,0,0,1-3.66,5.61h8.27V15.4h-8.46V13.91a20.89,20.89,0,0,1-6,4.31l-.65-1a17.49,17.49,0,0,0,7.24-9.15h-4.65V6.37h5.22a34.85,34.85,0,0,0,1.07-5.14l3.51.53A29.92,29.92,0,0,1,315,6.37h9.83V8.08h-7.36C319.77,11.51,322.51,13.11,326.55,14.33Zm-19.66,4.5h16.65v1.71h-9.26c-.45,1.22-1,2.48-1.56,3.78h10.44A50.73,50.73,0,0,1,321.75,33c-1.1,3.7-4.38,5.26-10.13.46l.53-1.22c5.14,1.79,5.87,1.52,6.44-.31a35.08,35.08,0,0,0,1-5.94H312a32.55,32.55,0,0,1-1.72,3.28l-3-1a48.65,48.65,0,0,0,3.51-7.74h-3.85Z"/><path class="cls-1" d="M359.75,10.79V36.62h-3.43V15.74a39.22,39.22,0,0,1-5.26,5.45l-.91-1.1A49.17,49.17,0,0,0,360.09,1l3.77,1.25A47.06,47.06,0,0,1,359.75,10.79Zm20.57,25.64c-6.59-1.41-10-10.55-11.24-20.69-2.55.38-5.1.76-7.62,1.11l-.34-2.14c2.55-.34,5.14-.72,7.73-1.1-.34-3.58-.49-7.51-.64-11.66h3.5c.15,4.23.34,8,.61,11.13q5.83-.87,11.74-1.91l.3,2.1c-3.92.68-7.89,1.33-11.81,1.94.88,7.05,3.35,15.66,7.73,17,1.53.46,2.1-.8,2.1-7.16h1.52C385.35,31.36,385.16,37.46,380.32,36.43Zm-1.06-25.91c-1.68-2.51-3.55-4.91-5.34-7.2l.88-1.07a37.2,37.2,0,0,1,7.31,5.57Z"/><path class="cls-1" d="M411.62,10.37c-.8-2.4-1.91-5.33-2.63-7l1.1-.72A26.74,26.74,0,0,1,414.4,9ZM429,30.45a93.41,93.41,0,0,1-19,4.95l-.76-3.58c2.36-.11,5.21-.38,8.07-.76V26h-6.17V24.32h6.17V20.39h-7.43V18.68h5.22c-.87-2-1.86-3.85-2.74-5.45l.65-.5h-3.77V11h6V1.45h3V11H420V1.45h3V11h4.73v1.71h-4.88l2.63,1a34.39,34.39,0,0,1-3.51,4.92h6v1.71h-7.43v3.93H427V26h-6.32v4.53c3.12-.45,6.05-1,8-1.44Zm-11.09-13L416,18.68h4.34a56,56,0,0,0,1.71-5.95h-8.26A22.35,22.35,0,0,1,417.9,17.46ZM425,10.83l-1.14-.65a46.32,46.32,0,0,0,2.4-7.62l3.35,1.18A32.71,32.71,0,0,1,425,10.83Zm18.06.26v1.72h-3.74V33.12c0,3.84-4.64,5.22-10.78,1.41l.38-1.38c6.21,1.26,7,.77,7-1.6V12.81h-7.28V11.09h7.28V1.38h3.42v9.71ZM430.78,25a88.24,88.24,0,0,0-1.87-9.33l1.3-.54a39.41,39.41,0,0,1,4,8.81Z"/><path class="cls-1" d="M481.35,9.49H467.64V7.78h6.47a45.39,45.39,0,0,0-3.92-5.72l.87-1a29.38,29.38,0,0,1,6.21,4.73l-2.17,2h6.25ZM469,14.79V13.11h11.12v1.68ZM480.09,20H469V18.3h11.12Zm-.15,13.38h-7.81v3.08h-3V23.55h10.82ZM477,25.27h-4.88v6.36H477Zm24.65,7.62L499.6,36.7A15.28,15.28,0,0,1,491.33,25c-1.14,6.56-4.8,10.4-12.26,11.89l-.46-1.29c8.88-3.05,9.83-9.15,9.71-18.87l3.74,0c0,1.29,0,2.93-.08,4.07a23,23,0,0,0,1.37,5.15,22.52,22.52,0,0,0,3.74-6.21l3.08,2.21A22.58,22.58,0,0,1,494,27.21C495.83,30.45,498.5,31.67,501.66,32.89ZM488.51,1.38l3.62.19a28,28,0,0,1-1,9,48,48,0,0,1,9.15,5.34l-2.44,2.93A57.61,57.61,0,0,0,490.57,12c-1.45,3.2-4.19,5.71-9.22,7l-.49-1.26C487.6,14.9,488.55,10.29,488.51,1.38ZM482.3,19.93a29.87,29.87,0,0,1,4.84,6.21l-3,1.68a44.72,44.72,0,0,0-2.86-7.16ZM484,11.28a39.71,39.71,0,0,0-2.63-7l1.14-.73a33.79,33.79,0,0,1,4.57,6.06Zm9.91-.61-.88-1a24,24,0,0,0,3.39-6.63l3.31,1.72A22.53,22.53,0,0,1,493.93,10.67Z"/><path class="cls-1" d="M542.86,21.42A2.83,2.83,0,0,1,540,18.68a2.78,2.78,0,0,1,2.82-2.75,2.75,2.75,0,1,1,0,5.49Z"/><path class="cls-1" d="M596.67,30.94l3.24,2.29c-3.78,2.06-10.52,3.58-15,4l-.31-1.37C588.51,35,593,33.73,596.67,30.94Zm21.52-19.2v1.72h-6.32l-.46,3.43H590l.64-3.43h-6V11.74H591l.61-3.31h20.95l-.45,3.31Zm-29.26-1.22h-3.24V4.88h16.54c-1.87-.91-4.31-1.94-6.17-2.66l.3-1.34a32.4,32.4,0,0,1,8.54,1.57l-1.11,2.43h13.15v5.64H613.7V6.6H588.93Zm23.89,20H589.58v-12h23.24Zm-3.2-10.25H592.78V22h16.84Zm0,3.31H592.78v1.75h16.84Zm0,3.39H592.78v1.83h16.84ZM593.39,15.29h6l.31-1.83h-5.91Zm.72-3.55H600l.27-1.71h-5.79Zm14.6,1.72h-6l-.26,1.83h6ZM609.2,10h-5.94L603,11.74h6Zm-5.71,21.22A79.53,79.53,0,0,1,617.78,34l-1.53,3.13c-4-1.52-9.18-3.32-13.07-4.46Z"/><path class="cls-1" d="M658.1,29.08a72.24,72.24,0,0,1-14.71,6.21l-1.14-3.77c.57-.08,1.18-.16,1.83-.27V18.52h3V30.68c.61-.12,1.18-.27,1.79-.42V15.09h-4.31V3.28h11.2V15.09h-3.61v5h5.18V21.8h-5.18v7.66c2.09-.57,4-1.14,5.48-1.68Zm-10.44-15.7h5V5h-5ZM673.3,36.74a11.57,11.57,0,0,1-8.84-4.12A42.41,42.41,0,0,1,653,36.43l-.49-1.29A48.08,48.08,0,0,0,663,30.64a24.38,24.38,0,0,1-2.78-6.1l-5.18.58-.3-1.72c1.71-.19,3.39-.34,5-.53a32.38,32.38,0,0,1-.88-5.18l3.2-.31a31.52,31.52,0,0,0,.88,5.11c1.41-.19,2.85-.35,4.26-.54-1.29-1.45-2.4-2.63-3.62-3.85l.77-1.06a26.21,26.21,0,0,1,5.48,3.16l-1.33,1.6c2.32-.3,4.68-.61,7.12-.95l.38,1.71c-4.38.61-8.42,1.11-12.57,1.6a16.93,16.93,0,0,0,2.29,4.69A26,26,0,0,0,671,23.78l2.67,2a24.47,24.47,0,0,1-6.17,5.11,8.91,8.91,0,0,0,5.83,2.32c1.33,0,1.48-1.41,1.41-4.8h1.41C677.8,33.23,677.64,36.85,673.3,36.74Zm-17-29.11c1.44-.16,2.89-.27,4.34-.42a27,27,0,0,1-1.18-5.64l2.89-.23a27.18,27.18,0,0,0,1.45,5.49c1.83-.19,3.7-.42,5.57-.65-1.38-1.49-2.56-2.67-3.85-4l.76-1.07a23,23,0,0,1,5.52,3.28l-1.6,1.63c1.68-.22,3.36-.45,5.07-.72L675.59,7c-3.78.57-7.43,1-11.09,1.48a18.47,18.47,0,0,0,1.87,3.24,20.75,20.75,0,0,0,4.15-3.5L673,10.41a20.57,20.57,0,0,1-4.84,3.35,7,7,0,0,0,5,1.83c.87,0,.91-1.22.84-4h1.37c1.64,4.23,1.71,7.35-2.1,7.35a11,11,0,0,1-8.08-3.85,37.85,37.85,0,0,1-9.45,2.52l-.34-1.34a37.73,37.73,0,0,0,8.31-3,21.92,21.92,0,0,1-2.44-4.45c-1.56.19-3.12.34-4.73.49Z"/><path class="cls-1" d="M701.09,35.78a35.27,35.27,0,0,0,11.66-9.06l3.88,2.09A42,42,0,0,1,701.73,37Zm.61-11.46H705V7.47h7.81V1.34h3.43V7.47h4.19V1.34h3.43V7.47h7.89V24.32H735v1.9H701.7Zm11.08-15h-4.45v6.25h4.45Zm0,8h-4.45v7.05h4.45Zm7.62-8h-4.19v6.25h4.19Zm0,8h-4.19v7.05h4.19Zm.19,10.89.61-1.25a64.92,64.92,0,0,1,14.06,6.21l-2.51,3.69A109.84,109.84,0,0,0,720.59,28.16ZM728.37,9.3h-4.54v6.25h4.54Zm0,8h-4.54v7.05h4.54Z"/><path class="cls-1" d="M760.69,12.58l-.84-1A25.6,25.6,0,0,0,765.75.81l3.74,1.29c-.57,1.11-1.14,2.14-1.75,3.09h9.94V6.9H772.5a29.33,29.33,0,0,1,2.63,3.77l-2.94,1.26a41.91,41.91,0,0,0-1.52-5h-4.12A24.35,24.35,0,0,1,760.69,12.58Zm10.36,16.65H779v1.71h-7.93v5.53h-3.28V30.94H760V29.23h7.81V26.94h-5.86V17.11h5.86V14.9h-7.31V13.19h7.31V9.72h3.28v3.47h7.55V14.9h-7.55v2.21h6.06v9.83h-6.06Zm-3.2-10.4H765v2.28h2.82Zm0,3.92H765v2.48h2.82ZM771,21.11h3V18.83h-3Zm3,4.12V22.75h-3v2.48Zm1.76-14.52A24.74,24.74,0,0,0,780,1.07l3.65,1.18a24.3,24.3,0,0,1-1.44,2.94h10.93V6.9h-6.4a21.9,21.9,0,0,1,2.59,3.89L786.22,12a44.61,44.61,0,0,0-1.45-5.07h-3.7a22.9,22.9,0,0,1-4.34,4.65Zm12.11,24.85c-5.83,0-8.19-.16-8.19-4.39V12.62h11.77v9.94c0,3.32-2,4.77-7.54,2.21l.27-1.37c3.73.61,4.15.12,4.15-1.45V14.33h-5.37v16c0,2.47,1.07,2.28,4.19,2.28,4.46,0,4.53-.26,4.46-5.86H793C794.48,32.51,795.21,35.56,787.85,35.56Z"/></svg>