<svg id="圖層_1" data-name="圖層 1" xmlns="http://www.w3.org/2000/svg" viewBox="0 0 1000 64"><defs><style>.cls-1{fill:#595757;}</style></defs><path class="cls-1" d="M838.36,43.12a35.61,35.61,0,0,1-13.59,11.31,129.31,129.31,0,0,0,21.76,2.82,25.18,25.18,0,0,0-3,5,108.22,108.22,0,0,1-26.18-4.62A122,122,0,0,1,790.28,63a18.51,18.51,0,0,0-2.21-4.83,121.67,121.67,0,0,0,22-3.41,48.05,48.05,0,0,1-8.91-5.56,60.84,60.84,0,0,1-8.84,5A16.62,16.62,0,0,0,788.41,50a59,59,0,0,0,8.64-4.42,34.61,34.61,0,0,1-3.49-4.22l4.56-1.88a17.81,17.81,0,0,0,2.74,3.35,30,30,0,0,0,4.82-5H794.1v-25h17.34c.27-1.07.47-2.21.74-3.28H787.94V4.48h56.45V9.57H819c-.47,1.2-.87,2.27-1.27,3.28H838.3v25H812.72c-.81,1.07-1.54,2.07-2.41,3.14h23.3l1.07-.26ZM800.13,19.88h31.94V16.6H800.13Zm0,7.1h31.94V23.63H800.13Zm0,7.1h31.94V30.73H800.13ZM805,46.26a46.9,46.9,0,0,0,12.45,6.1,39.28,39.28,0,0,0,11.86-7H806Z"/><path class="cls-1" d="M889.45,21.62c-6.16,6.36-15.4,11.92-23.77,14.87a26.56,26.56,0,0,0-3.95-4.76A62.94,62.94,0,0,0,883,20.55H863.4V15.26h26.05V9.77c-6.9.53-14,.87-20.49,1a19.22,19.22,0,0,0-1.41-4.95c15.07-.41,33.08-1.75,42.73-4l5.15,4.42A154.77,154.77,0,0,1,895.54,9.3v6h26.52v5.29H903.78c7.37,4.22,15.2,9.24,19.62,13l-4,4.35c-5.15-4.55-15.4-11.31-23.84-16.14v9h-6.09Zm6.43,22.9h26.25v5.36H895.88v6.63c0,3.28-.81,4.75-3.35,5.63s-6.63.8-12.32.8a24.85,24.85,0,0,0-2.15-5.43c4.42.14,8.91.14,10.12.07s1.6-.33,1.6-1.2v-6.5H863.33V44.52h26.45V40.71a68.84,68.84,0,0,0,7.77-3.29H874.72V32.54h30.4l1.34-.34,3.82,3.28a67.1,67.1,0,0,1-14.4,7.7Z"/><path class="cls-1" d="M960,41.78c-6.69,3.41-13.93,7-19.55,9.71L938,45.26c2.41-.94,5.42-2.21,8.7-3.62V21.69h-7.36v-5.9h7.36V2.27h5.76V15.79h6.77v5.9h-6.77V39.1c2-.94,4.09-1.88,6.16-2.81Zm13-7.91a30.56,30.56,0,0,1-2.48,4h28s-.07,1.54-.13,2.35c-1.08,13.39-2.08,18.61-3.89,20.62a5.8,5.8,0,0,1-4,1.88,52.43,52.43,0,0,1-6.69.06,12.42,12.42,0,0,0-1.41-5,44.39,44.39,0,0,0,5.22.27c1,0,1.54-.07,2.08-.74,1-1.14,1.87-5,2.68-14.39h-4c-2.68,7.76-7.9,16.14-13.46,20.35a20.13,20.13,0,0,0-4.49-3.48c5.23-3.48,9.91-10.11,12.73-16.87h-5.29c-3.62,6.63-10,13.72-15.94,17.47a17.48,17.48,0,0,0-4.15-3.75c5.29-2.81,10.78-8.17,14.46-13.72h-5.62a45.63,45.63,0,0,1-8.24,7.16,33.67,33.67,0,0,0-4.22-3.88,36,36,0,0,0,12.66-12.33h-8.57V28.58H1000v5.29Zm22.36-8.5H964.37v-22h30.94ZM989.55,7.89H970v4.36h19.55Zm0,8.57H970v4.42h19.55Z"/><path class="cls-1" d="M0,60.67V54L20.14,29.5a14.46,14.46,0,0,0,2.13-3.42,9.15,9.15,0,0,0,.66-3.56,8.25,8.25,0,0,0-2-5.73,7.19,7.19,0,0,0-5.66-2.21,9.61,9.61,0,0,0-2.87.44A6.54,6.54,0,0,0,10,16.42a6.92,6.92,0,0,0-1.73,2.5,9.53,9.53,0,0,0-.66,3.75H.07A15.74,15.74,0,0,1,1.21,16.6a13.49,13.49,0,0,1,3.16-4.67A14.49,14.49,0,0,1,9.19,9a17,17,0,0,1,6.1-1.07,17.63,17.63,0,0,1,6.17,1,13.56,13.56,0,0,1,4.78,2.94,13.35,13.35,0,0,1,3.09,4.63,16.21,16.21,0,0,1,1.1,6.1,13,13,0,0,1-1.25,5.92,30.43,30.43,0,0,1-3.67,5.4L9.12,54H30.43v6.69Z"/><path class="cls-1" d="M79.22,52.4A14.37,14.37,0,0,1,76,57.1a14.21,14.21,0,0,1-4.82,3,17.1,17.1,0,0,1-11.69,0,14.17,14.17,0,0,1-4.81-3,13.83,13.83,0,0,1-3.23-4.7,15.79,15.79,0,0,1-1.18-6.29V22.89A15.79,15.79,0,0,1,51.4,16.6a13.83,13.83,0,0,1,3.23-4.7,14.17,14.17,0,0,1,4.81-3,17.1,17.1,0,0,1,11.69,0,14.21,14.21,0,0,1,4.82,3,14.37,14.37,0,0,1,3.27,4.7,15.44,15.44,0,0,1,1.21,6.29V46.11A15.44,15.44,0,0,1,79.22,52.4ZM72.93,23.11a9.14,9.14,0,0,0-2-6.18,7,7,0,0,0-5.62-2.35,6.91,6.91,0,0,0-5.59,2.35,9.28,9.28,0,0,0-2,6.18V45.89a9.28,9.28,0,0,0,2,6.18,6.91,6.91,0,0,0,5.59,2.35,7,7,0,0,0,5.62-2.35,9.14,9.14,0,0,0,2-6.18Z"/><path class="cls-1" d="M100.73,60.67V54L120.87,29.5A14.46,14.46,0,0,0,123,26.08a9,9,0,0,0,.67-3.56,8.26,8.26,0,0,0-2-5.73A7.19,7.19,0,0,0,116,14.58a9.54,9.54,0,0,0-2.86.44,6.51,6.51,0,0,0-2.47,1.4,6.91,6.91,0,0,0-1.72,2.5,9.35,9.35,0,0,0-.67,3.75h-7.49A15.74,15.74,0,0,1,102,16.6a13.22,13.22,0,0,1,3.16-4.67,14.34,14.34,0,0,1,4.81-3A17,17,0,0,1,116,7.89a17.69,17.69,0,0,1,6.18,1A13.61,13.61,0,0,1,127,11.86a13.08,13.08,0,0,1,3.09,4.63,16,16,0,0,1,1.1,6.1,12.84,12.84,0,0,1-1.25,5.92,29.9,29.9,0,0,1-3.67,5.4L109.85,54h21.31v6.69Z"/><path class="cls-1" d="M165.07,60.67V16.49l-10.22,9V17.15l10.22-8.82h7.49V60.67Z"/><path class="cls-1" d="M234.74,33c4.69,11.72,13.53,20.43,26.78,24a24.34,24.34,0,0,0-4.21,5.75C244.45,58.52,235.88,50.08,230.45,38c-3.35,9.37-10.78,18.55-26.78,24.84a22.15,22.15,0,0,0-4.09-5.29C215.92,51.29,222.48,42,225,33H201.52V26.64h24.71a55,55,0,0,0,.34-6.49v-7.3H203.93V6.42H256.5v6.43H233.06v7.36c0,2-.06,4.22-.26,6.43h26.45V33Z"/><path class="cls-1" d="M308.79,12.78V24.1l1.14-1.34c7.63,3.68,18.15,9.64,23.3,13.66l-4.55,5.69C324.4,38.5,316,33.27,308.79,29.25V62.94h-6.63V12.78H277.32V6.42h59.13v6.36Z"/><path class="cls-1" d="M372.67,42.25c-.14-.94-.4-2.08-.67-3.35-13.8,2.07-16,2.61-17.35,3.28-.33-1.14-1.2-4.09-1.87-5.63,1.47-.33,2.94-1.94,5-4.35a61.67,61.67,0,0,0,4.89-6.7c-6,.74-7.5,1.14-8.44,1.54a55.25,55.25,0,0,0-1.8-5.35c1.2-.27,2.27-1.61,3.68-3.62a79.21,79.21,0,0,0,8.37-16.61L370,3.74a104.45,104.45,0,0,1-9.78,16.94l5.89-.47a82.68,82.68,0,0,0,4.69-8.7L376,14.59a124.22,124.22,0,0,1-14.27,20.69l9-1.14c-.6-2-1.27-4.08-2-6l4.62-1.27a96.86,96.86,0,0,1,4.28,13.66Zm-12.06,3.28a85.53,85.53,0,0,1-3.28,16.74,27,27,0,0,0-4.89-1.88c1.54-4,2.48-10.11,3-15.67Zm6.63-.87a122.35,122.35,0,0,1,1.81,13.79l-4.89,1a123.11,123.11,0,0,0-1.61-14Zm6.3-1.95a87.49,87.49,0,0,1,3.28,10.79L372.33,55a84,84,0,0,0-3.08-10.92Zm40.31,13.13v5.69h-38V55.84H392V44.59H379.23V39h31.94v5.56h-13V55.84ZM384.72,37.29a62.94,62.94,0,0,0-7.83-13.12A109.66,109.66,0,0,0,383.78,12l5.43,1.34c-1.88,3.41-4.29,7.5-6.5,10.71a76,76,0,0,1,7.17,11.12Zm28.46-27H377.62V4.74h35.56Zm-12.66,3.08A106.57,106.57,0,0,1,393.9,24a69.75,69.75,0,0,1,7.36,10.92l-5,2.21a61.29,61.29,0,0,0-8.24-13A103.56,103.56,0,0,0,395.17,12ZM408,37.29a65.53,65.53,0,0,0-8.84-13.12A110.64,110.64,0,0,0,406.55,12l5.43,1.4c-2,3.42-4.56,7.44-6.77,10.65A80.25,80.25,0,0,1,413,35Z"/><path class="cls-1" d="M438.82,32.07c-2.14-2.28-6.63-5.43-10.05-7.57l3-3.68A60.7,60.7,0,0,1,442,28Zm-9.24,27c2.41-5,6-13.53,8.5-20.83l4,3c-2.28,6.83-5.29,14.73-7.84,20.83Zm10.64-44.27a57.56,57.56,0,0,0-9.64-8.91l3.28-3.55a61,61,0,0,1,9.91,8.51Zm37.44,20h5.83V63.14h-5.83V53.3H454.49a18.38,18.38,0,0,1-7.23,9.91,26,26,0,0,0-4.62-3.28c6.56-4.63,7.5-11.59,7.5-16.41V34.81H456v4h21.7Zm-24.38-13c-.93,5.83-3.28,10.25-7.63,13.13a11.6,11.6,0,0,0-2.55-3.28c3.42-2.21,5.23-5.5,6-9.85h-3.41V17.74h15v1.8c-.27,8.17-.47,11.52-1.47,12.73a3.61,3.61,0,0,1-2.82,1.4,27.88,27.88,0,0,1-3.68.14,11.5,11.5,0,0,0-1.07-4,18.18,18.18,0,0,0,2.81.2,1.39,1.39,0,0,0,1.21-.53c.4-.54.53-2.55.73-7.64ZM462.79,13H445.31V8H463.8a60.71,60.71,0,0,0-1.41-6l5.76-.73A41.34,41.34,0,0,1,470,8h19.69v5h-18l3.75,1.34c-2,2.14-4.42,4.49-6.43,6.3H469V34.48H464.4V20.68h-.07l.07-.06A45.53,45.53,0,0,0,470.9,13H463a19.81,19.81,0,0,1,2.95,5.23l-3.55,1.67a20.44,20.44,0,0,0-2.81-5.49Zm14.87,35.36V43.72H456a38,38,0,0,1-.27,4.62Zm10-30.13c-1.27.66-2.61,1.27-4.08,1.87,1.34,4.49,3.48,8.77,6.56,10.92a12.49,12.49,0,0,0-2.74,3.14c-3.35-2.74-5.63-7.7-7-13-1.07.27-2.14.6-3.21.87v7.44l4.42-1.28c.13,1,.47,2.55.6,3.28-6.36,2.21-7.77,2.82-8.57,3.42v-.07A17.09,17.09,0,0,0,471.83,31c.74-.47,1.61-1.61,1.61-4.22V19.41h.07l-.07-.07A40.36,40.36,0,0,0,484,15.19Z"/><path class="cls-1" d="M526.6,17.74H505.84v-5h10.31a66.49,66.49,0,0,0-4.82-9l4.82-2.48A61.07,61.07,0,0,1,521.24,10l-5,2.75H526.6Zm-1.41,41.45H512.87v3h-5.09V39.57h17.41Zm-.4-32.61H508.18V21.69h16.61Zm-16.61,4h16.61v4.82H508.18Zm4.69,14.06v9.58H520V44.59ZM550.78,4.54c-.41.74-.81,1.34-1.28,2.08a40.91,40.91,0,0,0,18.35,13.93,26.39,26.39,0,0,0-4.35,5.62,35.92,35.92,0,0,1-6-3.48V25.3H535L535,22.42a57.93,57.93,0,0,1-6.7,4.56,21.33,21.33,0,0,0-3.68-5.76A52,52,0,0,0,546,1.33Zm12.45,52.3c0,2.42-.27,4-1.67,4.76s-3.35,1-5.9,1a20.21,20.21,0,0,0-1.4-5.15c1.47.06,2.81.06,3.21.06s.67-.2.67-.73V48.47h-5.09V61.4h-4.42V48.47h-4.82V61.4h-4.42V48.47h-4.82V63.21h-5v-33h33.68ZM539.39,43.32v-8h-4.82v8ZM554,20a48.12,48.12,0,0,1-7.77-8.7,68.21,68.21,0,0,1-8.3,8.7Zm-5.36,23.31v-8h-4.82v8Zm9.51,0v-8h-5.09v8Z"/><path class="cls-1" d="M603.13,46.93c-6.56,2.68-13.53,5.56-19.08,7.77L582,48.34c2.28-.74,5-1.67,8-2.68V23.56h-6.83V17.67h6.83V2.4h5.83V17.67h5.42v5.89h-5.42v20l6.16-2.21Zm40.12,10v4.75H598.38V57Zm-.54-45.07H600.05V7.22h18a32.82,32.82,0,0,0-2.75-4.15l5-2.34a25.17,25.17,0,0,1,4.22,6.49h18.15Zm-3,23.44H603.2v-21h36.56ZM605.21,54.43V37.76h32.08V54.43Zm29.2-36.29H608.29V31.53h26.12ZM610.9,44.39h20.43V41.31H610.9Zm0,6.49h20.43V47.74H610.9Zm19.49-21.63H612.17v-8.7h18.22ZM626,23.5h-9.7v2.81H626Z"/><path class="cls-1" d="M656,31H775.75v2.67H656Z"/></svg>