<svg id="圖層_1" data-name="圖層 1" xmlns="http://www.w3.org/2000/svg" viewBox="0 0 888 58"><defs><style>.cls-1{fill:#595757;}</style></defs><path class="cls-1" d="M9.11,47.62H34.26v5.46H.33v-4Q5.31,39.8,15.51,32q12.1-8.55,11.15-13.76-.22-8.07-9-8.31-7.83,0-10,9.25L1,17Q4.61,4,18.84,4q14.46.48,15.42,13.52Q35.44,26,22.63,34.34,13.62,40.51,9.11,47.62Z"/><path class="cls-1" d="M81.23,4q17.08.24,17.32,25.15,0,25.14-17.32,24.91T63.68,29.12Q64.15,4.69,81.23,4Zm0,44.84Q91,49.05,91,29.36,91.2,9.19,81.23,9.67q-9.72-.24-9.72,19.69Q71.51,49.06,81.23,48.81Z"/><path class="cls-1" d="M135.57,47.62h25.15v5.46H126.79v-4Q131.77,39.8,142,32q12.1-8.55,11.15-13.76-.23-8.07-9-8.31-7.83,0-10,9.25L127.5,17q3.57-13,17.8-13,14.46.48,15.42,13.52Q161.9,26,149.09,34.34,140.08,40.51,135.57,47.62Z"/><path class="cls-1" d="M203.9,53.32v-38q-5.46,5.22-15,9.25v-6.4q12.35-5.7,16.61-14H211V53.32Z"/><path class="cls-1" d="M247.79,10.14V4h49.35v6.17H275.79c0,1.42-.08,3.56-.24,6.4v6.17h24.91v6.17h-24q4,16.37,24.67,21.59a32,32,0,0,0-4,6.17q-20.64-6.89-24.67-21.59Q268.67,48.57,248,57.11c-1.27-1.9-2.61-3.87-4-5.93q21.58-7.83,23.72-22.3H244.47V22.71h24a58.56,58.56,0,0,0,.23-6.17c.16-2.84.24-5,.24-6.4Z"/><path class="cls-1" d="M328,10.85V4.45h56.46v6.4H357.4V25.32l3.8-4.74q9.48,5.46,20.64,12.81l-4.51,5.93-13.52-9c-2.85-2.05-5-3.55-6.41-4.5V56.88h-7.35v-46Z"/><path class="cls-1" d="M413.16,37.42l-1.66-4.74a6.5,6.5,0,0,0,1.43-.24h1.18a91.27,91.27,0,0,0,6.17-9q-4.27-4.26-9.49-8.54l3.08-3.55,1.43.94A90.08,90.08,0,0,0,421.7.65l5.7,1.9q-1,1.43-2.61,4-3.8,6.18-5.7,8.78l4,3.56q1.65-2.37,4.74-7.12c.48-.79.79-1.34.95-1.66l4.74,2.61q-6.17,9-13.52,19.45l6.65-.47q-.24-.72-.72-2.37a19.12,19.12,0,0,1-1-2.14l4-1.42q1.65,3.56,4.27,10.2a6.64,6.64,0,0,0,.47,1.42l-4.51,1.43-.94-2.38h-3.09V57.82H420V36.71l-2.13.24a15.81,15.81,0,0,0-2.38.23A8.66,8.66,0,0,0,413.16,37.42Zm1.9,16.85-4.27-.48c1.11-5.37,1.9-9.73,2.37-13l4,.48q-.24,2.37-.95,6.64C415.77,50.55,415.38,52.68,415.06,54.27Zm19.69-14V34.81H467v5.46H453.49V50h15.19v5.21H432.62V50.94l-1.9.48a91.44,91.44,0,0,0-3.09-10.68l3.56-1c.63,1.59,1.58,4.27,2.85,8.07.31,1,.55,1.66.71,2.14h12.81V40.27Zm5.46-7.12q-4.27-6.16-7.83-10.91A75.19,75.19,0,0,0,440,11.09l4.75,2.37q-4.28,5.94-6.41,8.54,3.56,4,6.64,8.3ZM434,9.43V3.73h33.21v5.7Zm17.79,23.72q-2.13-3.07-6.4-9A23.84,23.84,0,0,1,443.77,22a98.94,98.94,0,0,0,7.59-10.91l4.74,2.37q-4.26,5.94-6.4,8.54,2.13,2.37,6.64,8.3Zm11.63,0q-3.09-4.27-8.54-11.15c.31-.47.95-1.26,1.89-2.37q4.28-5.92,5.94-8.54l4.74,2.37-5,6.41c-.79.95-1.35,1.66-1.66,2.13q2.13,2.13,6.88,7.83Z"/><path class="cls-1" d="M503.32,27.93c-.95-.79-1.27-1-.95-.71q-5.22-4.5-7.59-6.17l4-4.51c.48.32,1.19.88,2.14,1.67,2.68,2.21,4.82,3.95,6.4,5.21Zm-1.42,29-6.17-1.67q2.85-10,5.45-21.58l5.93,1.89Q505.46,41.93,501.9,56.88Zm2.61-44.13a94.1,94.1,0,0,0-8.07-7.12l4-4.27c2.85,2.22,5.61,4.51,8.31,6.88Zm5.93,45.07a57.61,57.61,0,0,0-4.51-4q8.29-4.5,7.83-14.47L514,34.1h5.94l-.24,2.61h20.88V34.1h5.93V56.88h-5.93V49.76H517.79A23.11,23.11,0,0,1,510.44,57.82ZM510,34.34a32.86,32.86,0,0,0-3.56-3.09q5.22-4,5.46-11.62H509V15.36H524.2c.15,2.37.15,5.46,0,9.25v2.14c-.16,3.48-1.75,5.3-4.75,5.45h-4a16,16,0,0,0-.48-3.08,3.7,3.7,0,0,1-.23-.95h2.84c1.74.16,2.53-.63,2.38-2.37.15-1.9.23-3.95.23-6.17h-4A18.5,18.5,0,0,1,510,34.34Zm-.47-23.73V5.87h17.79v-5h5.93v5h18.27v4.74H535.11l3.56,1.66a6.78,6.78,0,0,1-1.19,1.43q-4,5-5.22,6.17V33.15h-4.51V18.92q3.33-3.8,6.65-8.31h-8.54L528,12.75a19.84,19.84,0,0,0,1.9,2.37l-3.32,2.61a5.77,5.77,0,0,1-.71-.95c-1.75-2.05-3-3.47-3.8-4.27l2.61-1.9ZM519.69,41a14.11,14.11,0,0,1-.24,2.14,8.27,8.27,0,0,1-.24,2.37h21.36V41Zm30.13-7.59q-5.46-5.22-6.41-14l-3.32.71v7.6l3.56-1.19a11.63,11.63,0,0,0,.47,3.56q-3.32,1.18-8.3,3.32l-1.9-3.56,1.9-.71V16.78q6.88-1.43,12.58-3.08l2.37,3.79-3.32,1q.94,7.13,5.45,11.15-.95,1-2.84,3.32A.69.69,0,0,0,549.82,33.39Z"/><path class="cls-1" d="M578.53,15.83v-5h20.4v5Zm1.66,8.54v-4.5H597v4.5Zm0,8.54v-4.5H597v4.5Zm0,24V37H596.8V56.88h-4.51V54h-7.35v2.85Zm1.19-49.82V2.55h14.47V7.06Zm3.56,34.63v7.83h7.35V41.69ZM634,22a84.3,84.3,0,0,1-7.35-5v3.56H608V17.26l-2.14,1.42a34.88,34.88,0,0,1-5.46,3.8c-.15-.32-.39-.79-.71-1.43a42.14,42.14,0,0,0-1.89-3.79Q609.84,10.13,615.54.18l5.93.71L620.28,3a43.77,43.77,0,0,0,16.14,13.52l-.95,1.9A16,16,0,0,0,634,22ZM619.57,54V42.88h-4.51V54.5h-4.27V42.88h-4.74V57.11h-5v-32h32.74V51.42q.23,5.22-4.75,5.46h-4.51a13.21,13.21,0,0,0-.47-2.85Zm-13.52-24v8.06h4.74V30.07ZM617.44,7.29a37,37,0,0,1-7.83,8.54H625A62.5,62.5,0,0,1,617.44,7.29Zm-2.38,22.78v8.06h4.51V30.07Zm13.76,0h-4.74v8.06h4.74Zm-1.89,22.06c1.42.16,2.05-.4,1.89-1.66V42.88h-4.74v9.25Z"/><path class="cls-1" d="M663.23,21.29V15.12h5V.65h5.7V15.12h4.27v6.17h-4.27V41c1.89-.47,3.71-.95,5.45-1.42,0,1.9.08,3.95.24,6.17q-6.18,1.41-16.37,4.27l-1-6.41,5.93-1.42V21.29Zm13.29,34.16v-4h43.17v4ZM678.18,9V5.16h18v-5h5.69v5h17.56V9Zm2.13,22.3V11.56h37V31.25Zm1.9,17.8V33.86h33.21V49.05Zm3.56-33.93V27.7h26.09V15.12Zm1.9,22.06V40H710V37.18Zm0,5.7v2.85H710V42.88Zm2.13-17.56V17.49h18v7.83Zm4.51-5.22v2.61h9V20.1Z"/><path class="cls-1" d="M748.4,13.7V7.77h16.14a44.84,44.84,0,0,0,2.13-5.46c.32-.79.55-1.42.71-1.9l6.88.71a16.15,16.15,0,0,0-1,2.61c-.79,1.75-1.34,3.09-1.66,4h31.79V13.7H769A79.52,79.52,0,0,1,761.45,26V57.11h-6.17V33.39l-3.08,3.08q-2.13,1.91-3.32,3.09a30.5,30.5,0,0,1-1.9-4.27,19.12,19.12,0,0,1-1-2.14A63.37,63.37,0,0,0,761.69,13.7Zm17.8,19.93v-5.7h14V17h6.41V27.93h14v5.7h-14V48.57h16.84v5.22H763.59V48.57h16.6V33.63Z"/><path class="cls-1" d="M831.21,37.18,829.55,32l3.55-.24,5.7-8.54-10.2-7.83,3.32-3.8c.47.32,1.1.71,1.9,1.19Q837.14,6.83,840,.65l5.7,1.9q-3.79,6.88-8.07,13.28c1.43,1,2.77,1.9,4,2.85q2.83-4.27,5.21-8.54l4.75,2.61Q844.26,24.14,839,31.49L845.2,31l-1.89-4.51,4-1.19q2.85,7.13,4.51,12.1l-4,1.43v-.48a10.45,10.45,0,0,0-.95-2.61,23.28,23.28,0,0,0-3.32.24V57.82h-5.22V36.24l-1.66.23A47.93,47.93,0,0,0,831.21,37.18Zm2.84,18c-.79-.15-1.74-.31-2.84-.47a6.5,6.5,0,0,0-1.43-.24q1.43-6.16,2.38-13.28l4,.47Q835.24,49.52,834.05,55.21Zm14.24-4.74a15.48,15.48,0,0,1-.71-1.9Q846.86,46,845.2,41l3.32-.95c.16.64.48,1.58,1,2.85q.48.94,2.14,5.69a17.73,17.73,0,0,0,6.88-10.2h-6.17v-5H864v5q-1.66,9.5-11.87,16.37a30,30,0,0,0-1.66-3.8,3.22,3.22,0,0,0-.47-.71Zm5.22-21.59V5.63h9.25Q863.47,3,864,.41l6.4.71-1.66,4.51h14.95V28.88H871.77v1.66a54.38,54.38,0,0,0,3.33,7.59q4-3.56,7.59-7.11l4,3.56c-.63.47-1.66,1.34-3.08,2.6-.8.64-2.69,2.22-5.7,4.75a38.44,38.44,0,0,0,9.73,7.59,26.22,26.22,0,0,0-3.08,4.75q-9.26-5.46-12.82-13.05v9q0,5.93-5.93,6.17c-1.89.16-4.11.24-6.64.24a3.78,3.78,0,0,0-.24-1,20.43,20.43,0,0,0-.71-4.51H863c2.37.16,3.47-.79,3.32-2.85V28.88Zm5.69-18.5v5h19v-5Zm0,8.77v5h19v-5Z"/></svg>