<svg id="圖層_1" data-name="圖層 1" xmlns="http://www.w3.org/2000/svg" viewBox="0 0 887.34 57.65"><defs><style>.cls-1{fill:#595757;}</style></defs><path class="cls-1" d="M8.78,47.45H33.93V52.9H0v-4q5-9.25,15.18-17.08Q27.29,23.26,26.33,18q-.24-8.06-9-8.3-7.83,0-10,9.25L.71,16.84q3.56-13,17.79-13Q33,4.27,33.93,17.32,35.1,25.86,22.3,34.16,13.28,40.34,8.78,47.45Z"/><path class="cls-1" d="M80.9,3.8Q98,4,98.22,28.94q0,25.15-17.32,24.91T63.35,28.94Q63.82,4.52,80.9,3.8Zm0,44.83q9.73.24,9.73-19.45Q90.87,9,80.9,9.49q-9.72-.24-9.72,19.69Q71.18,48.88,80.9,48.63Z"/><path class="cls-1" d="M135.24,47.45h25.15V52.9H126.46v-4q5-9.25,15.18-17.08Q153.75,23.26,152.79,18q-.24-8.06-9-8.3-7.83,0-10,9.25l-6.64-2.14q3.55-13,17.79-13,14.47.47,15.43,13.52,1.17,8.54-11.63,16.84Q139.75,40.34,135.24,47.45Z"/><path class="cls-1" d="M203.57,53.14v-38a49.45,49.45,0,0,1-14.95,9.26V18Q201,12.33,205.23,4h5.46V53.14Z"/><path class="cls-1" d="M247.46,10V3.8h49.35V10H275.46c0,1.43-.08,3.56-.24,6.41v6.17h24.91v6.17h-24q4,16.36,24.67,21.58a32.26,32.26,0,0,0-4,6.17q-20.64-6.89-24.67-21.59Q268.35,48.4,247.7,56.94q-1.9-2.85-4-5.93,21.59-7.83,23.72-22.3H244.14V22.54h24a55.38,55.38,0,0,0,.24-6.17c.16-2.85.24-5,.24-6.41Z"/><path class="cls-1" d="M327.66,10.68V4.27h56.46v6.41H357.07V25.15l3.8-4.75q9.48,5.46,20.64,12.81L377,39.14l-13.52-9c-2.85-2.05-5-3.56-6.41-4.51V56.7h-7.35v-46Z"/><path class="cls-1" d="M412.83,37.25l-1.66-4.75a6.34,6.34,0,0,0,1.42-.24h1.19a90,90,0,0,0,6.17-9q-4.27-4.28-9.49-8.54l3.08-3.56,1.43.95A91.43,91.43,0,0,0,421.37.47l5.7,1.9q-1,1.42-2.61,4c-2.54,4.11-4.43,7-5.7,8.77l4,3.56q1.65-2.37,4.74-7.12c.48-.78.79-1.34.95-1.66l4.74,2.61q-6.17,9-13.52,19.46l6.64-.48c-.15-.47-.39-1.26-.71-2.37a20,20,0,0,1-.95-2.13l4-1.43c1.1,2.37,2.52,5.78,4.27,10.2a6.77,6.77,0,0,0,.47,1.43L429,38.67,428,36.3h-3.09V57.65h-5.22V36.54l-2.13.23a14.76,14.76,0,0,0-2.38.24A8.27,8.27,0,0,0,412.83,37.25Zm1.9,16.84-4.27-.47c1.1-5.38,1.9-9.73,2.37-13l4,.47c-.16,1.59-.48,3.8-.95,6.65C415.44,50.37,415,52.51,414.73,54.09Zm19.69-14V34.64h32.27v5.45H453.16v9.73h15.19V55H432.29V50.77l-1.9.47a90.79,90.79,0,0,0-3.09-10.67l3.56-1q.94,2.37,2.85,8.07c.31.94.55,1.66.71,2.13h12.81V40.09ZM439.88,33q-4.28-6.16-7.83-10.92a75.19,75.19,0,0,0,7.59-11.15l4.74,2.38q-4.26,5.92-6.4,8.54,3.56,4,6.64,8.3ZM433.71,9.25V3.56h33.21V9.25ZM451.5,33q-2.13-3.09-6.4-9a25.66,25.66,0,0,1-1.66-2.13A100,100,0,0,0,451,10.91l4.74,2.38q-4.26,5.92-6.4,8.54,2.13,2.37,6.64,8.3Zm11.63,0q-3.09-4.27-8.54-11.15a28.89,28.89,0,0,1,1.89-2.38q4.27-5.92,5.94-8.54l4.74,2.38-5,6.4a23.84,23.84,0,0,0-1.66,2.14q2.13,2.13,6.88,7.83Z"/><path class="cls-1" d="M503,27.76c-.95-.79-1.27-1-.95-.71q-5.22-4.52-7.59-6.17l4-4.51c.48.32,1.19.87,2.14,1.66,2.68,2.22,4.82,4,6.4,5.22ZM501.57,56.7,495.4,55q2.84-10,5.45-21.59l5.93,1.9Q505.13,41.76,501.57,56.7Zm2.6-44.13a92.37,92.37,0,0,0-8.06-7.11l4-4.27c2.85,2.21,5.61,4.5,8.31,6.88Zm5.94,45.08a55.66,55.66,0,0,0-4.51-4q8.29-4.51,7.83-14.48l.23-5.21h5.94l-.24,2.61h20.88V33.93h5.93V56.7h-5.93V49.58H517.46A23.13,23.13,0,0,1,510.11,57.65Zm-.48-23.49a33.91,33.91,0,0,0-3.56-3.08q5.22-4,5.46-11.63h-2.85V15.18h15.19c.15,2.38.15,5.46,0,9.26v2.13c-.16,3.48-1.75,5.3-4.75,5.46h-4a16.21,16.21,0,0,0-.48-3.09,3.61,3.61,0,0,1-.23-1h2.84c1.74.16,2.53-.63,2.38-2.37.15-1.9.23-3.95.23-6.17h-4A18.49,18.49,0,0,1,509.63,34.16Zm-.47-23.72V5.69H527v-5h5.93v5h18.27v4.75H534.78l3.56,1.66a6.8,6.8,0,0,1-1.19,1.42q-4,5-5.22,6.17V33h-4.51V18.74q3.33-3.79,6.65-8.3h-8.54l2.13,2.13a20,20,0,0,0,1.9,2.38l-3.32,2.61a6.85,6.85,0,0,1-.71-.95c-1.75-2.06-3-3.48-3.8-4.27l2.61-1.9Zm10.2,30.37a14.14,14.14,0,0,1-.24,2.13,8.18,8.18,0,0,1-.24,2.37h21.36v-4.5Zm30.13-7.6q-5.46-5.21-6.41-14l-3.32.71v7.59l3.56-1.19a11.29,11.29,0,0,0,.47,3.56c-2.21.8-5,1.9-8.3,3.32l-1.9-3.55,1.9-.72V16.61q6.88-1.42,12.57-3.09l2.38,3.8-3.32.95a17.48,17.48,0,0,0,5.45,11.15q-.95.95-2.85,3.32A.72.72,0,0,0,549.49,33.21Z"/><path class="cls-1" d="M578.2,15.66v-5h20.4v5Zm1.66,8.54V19.69H596.7V24.2Zm0,8.54V28.23H596.7v4.51Zm0,24V36.77h16.61V56.7H592V53.85H584.6V56.7Zm1.19-49.82V2.37h14.47V6.88Zm3.55,34.64v7.83H592V41.52Zm49.11-19.69a82,82,0,0,1-7.35-5V20.4H607.62V17.08l-2.14,1.42A34.19,34.19,0,0,1,600,22.3c-.15-.31-.39-.79-.71-1.42-.79-1.74-1.42-3-1.89-3.8Q609.51,10,615.21,0l5.93.71L620,2.85a43.91,43.91,0,0,0,16.13,13.52c-.15.32-.47.95-.94,1.9A15.85,15.85,0,0,0,633.71,21.83Zm-14.47,32V42.7h-4.51V54.33h-4.27V42.7h-4.74V56.94h-5v-32h32.74V51.24q.22,5.22-4.75,5.46h-4.51a13.39,13.39,0,0,0-.47-2.85Zm-13.52-24V38h4.74V29.89ZM617.11,7.12a37,37,0,0,1-7.83,8.54H624.7A63.71,63.71,0,0,1,617.11,7.12Zm-2.38,22.77V38h4.51V29.89Zm13.76,0h-4.74V38h4.74ZM626.6,52c1.42.15,2-.4,1.89-1.67V42.7h-4.74V52Z"/><path class="cls-1" d="M662.9,21.11V15h5V.47h5.7V15h4.27v6.16h-4.27v19.7c1.89-.48,3.71-1,5.45-1.43q0,2.85.24,6.17Q673.09,47,662.9,49.82l-.95-6.4L667.88,42V21.11Zm13.29,34.17v-4h43.17v4Zm1.66-46.5V5h18V0h5.69V5h17.56v3.8ZM680,31.08V11.39h37V31.08Zm1.9,17.79V33.69h33.21V48.87ZM685.44,15V27.52h26.09V15ZM687.33,37v2.85h22.31V37Zm0,5.69v2.85h22.31V42.7Zm2.14-17.55V17.32h18v7.83ZM694,19.93v2.61h9V19.93Z"/><path class="cls-1" d="M748.07,13.52V7.59h16.14a43.92,43.92,0,0,0,2.13-5.45c.32-.79.55-1.43.71-1.9l6.88.71A15.46,15.46,0,0,0,773,3.56c-.79,1.74-1.34,3.08-1.66,4h31.79v5.93h-34.4a80.09,80.09,0,0,1-7.59,12.34V56.94H755V33.21l-3.08,3.09c-1.42,1.27-2.53,2.29-3.32,3.08a30,30,0,0,1-1.9-4.27A20,20,0,0,1,745.7,33a63.4,63.4,0,0,0,15.66-19.46Zm17.8,19.93V27.76h14V16.84h6.41V27.76h14v5.69h-14V48.4h16.84v5.22H763.26V48.4h16.6V33.45Z"/><path class="cls-1" d="M830.88,37l-1.66-5.22,3.55-.24,5.7-8.54-10.2-7.83,3.32-3.79c.47.32,1.1.71,1.9,1.18q3.32-5.93,6.16-12.1l5.7,1.9q-3.79,6.88-8.07,13.29,2.15,1.43,4,2.84,2.85-4.26,5.22-8.54l4.75,2.61Q843.93,24,838.71,31.32l6.16-.48L843,26.33l4-1.18q2.85,7.11,4.51,12.1l-4,1.42V38.2a10.45,10.45,0,0,0-1-2.61,24.81,24.81,0,0,0-3.32.23V57.65H838V36.06l-1.66.24A45.77,45.77,0,0,0,830.88,37Zm2.84,18c-.79-.16-1.74-.32-2.84-.47a6.5,6.5,0,0,0-1.43-.24q1.42-6.16,2.38-13.29l4,.48Q834.9,49.35,833.72,55ZM848,50.29a15.13,15.13,0,0,1-.71-1.89q-.72-2.61-2.38-7.59l3.32-1c.16.63.48,1.58.95,2.84.32.64,1,2.53,2.14,5.7a17.73,17.73,0,0,0,6.88-10.2H852v-5h11.63v5Q862,47.68,851.75,54.57a31.53,31.53,0,0,0-1.66-3.8,3,3,0,0,0-.47-.71Zm5.22-21.58V5.46h9.25q.71-2.61,1.19-5.22L870,1l-1.66,4.51h14.95V28.71H871.44v1.66A54.38,54.38,0,0,0,874.77,38q4-3.55,7.59-7.12l4,3.56c-.63.47-1.66,1.35-3.08,2.61-.8.63-2.69,2.22-5.7,4.74a38.27,38.27,0,0,0,9.73,7.6,26.58,26.58,0,0,0-3.09,4.74Q875,48.63,871.44,41v9q0,5.92-5.93,6.17c-1.89.15-4.11.23-6.64.23a3.89,3.89,0,0,0-.24-1,20.42,20.42,0,0,0-.71-4.5h4.75c2.37.15,3.47-.79,3.32-2.85V28.71Zm5.69-18.51v5h19v-5Zm0,8.78v5h19V19Z"/></svg>