<svg id="圖層_1" data-name="圖層 1" xmlns="http://www.w3.org/2000/svg" viewBox="0 0 922 398"><defs><style>.cls-1{fill:#1d9ad1;}.cls-2{fill:#595757;}</style></defs><path class="cls-1" d="M22.21,178.68a90.08,90.08,0,0,0-10.41-6.1c-4.69-2.43-8.48-4.22-11.35-5.34q6.2-12.77,8.63-35.46,1.7-17.09,1.69-45.22l23.64,1.5q0,9-.75,25.14a64.33,64.33,0,0,0,7.32,15v-49H6.26V55.41H36.85V41.52H10.77V18.07H36.85V1H61.8V18.07H87V41.52H61.8V55.41H90v2.44q14.25-9.75,19-28.15H92.39V7.19h83.49c0,2.88-.06,5.81-.18,8.82q-.94,23.26-2.44,34.15-1.51,11.45-4.88,15.57-4.89,5.82-13.7,7.32-6.94,1.13-21,.75a60.63,60.63,0,0,0-2.07-11.64,44.25,44.25,0,0,0-4.5-11.07A66.57,66.57,0,0,1,104.77,77,110.45,110.45,0,0,0,90,65.17V79.24H65V96.13H87.32v23.45H65v25.33q11.64,3.38,35.09,3.38,56.1.56,83.68-.94a61.35,61.35,0,0,0-6,12.76,86.53,86.53,0,0,0-4.32,14.26H99.89q-26.64,0-41.65-4.32Q40.6,164.8,29.91,151.48,26.89,168,22.21,178.68Zm74.31-39.4v-60h74.86v60Zm25.33-21.58h22.51V100.82H121.85Zm18.76-66a7.38,7.38,0,0,0,5.44-1.88q2.25-3,3.19-20.08H134.42a84.71,84.71,0,0,1-7.32,21.39Q132.92,51.66,140.61,51.66Z"/><path class="cls-1" d="M223.73,178.68a50,50,0,0,0-8.07-9.57q-5.44-5.25-9.57-7.13,7.89-14.25,10.32-35.46,1.69-15.94.75-39l22.71,1.32q.18,6.75.18,20.26a63,63,0,0,0,6.57,14.07V77.74H211.53V53.91h30.78V42.65H217.73V19.2h24.58V1h24.95V19.2h24V42.65h-24V53.91h26.27V77.74H271v18h20.08v18l6.57-3.56V29.14H328.8q-.56-9.37-.93-28.33H353v9.94l18-9.19q10.88,12.77,14.82,21.2l-12,6.38H387V51.66H354.88Q356,65.16,357.7,77a137,137,0,0,0,7.5-20.27L386,62.35a199.92,199.92,0,0,1-21.39,49.16q2.63,8.64,5.44,8.63,3.19,0,3.76-21A51.49,51.49,0,0,0,392,112.45q-2.44,18.94-8.07,25.89-5.27,6.39-16.7,6.38-10.32,0-18-12.76a121.59,121.59,0,0,1-16.52,14.83,79.53,79.53,0,0,0-16.13-18.39,96,96,0,0,0,20.26-18.2Q316.8,125,295.78,139.09L285.09,119.2H271v24q14.07,5.07,41.66,5.07,58.9,0,77.68-.94a60.8,60.8,0,0,0-6,12.76A85.48,85.48,0,0,0,380,174.37H312.29q-28.71,0-45-5.26A60.77,60.77,0,0,1,235.74,147Q231.8,165.56,223.73,178.68Zm113.7-69.05,1.88-2.25q-5.82-21.57-9-55.72h-8.63V95.75l8.26-5.07Zm15.95-80.49h11.45A136.29,136.29,0,0,0,353,10.94Q353,17.14,353.38,29.14Z"/><path class="cls-1" d="M90.14,391.32q-17.46-.93-28.52-5.25a49.63,49.63,0,0,1-20.83-15.2q-9.95,8.82-26.27,21.77L1.57,364.87q13.14-7.32,24.21-15V325.65H6.45V300.7h46v47.47q9.39,15.19,34.71,17.26A86.58,86.58,0,0,0,74,350.8Q93.32,345,99.71,329.22H90.14v5.63H65V271.43H90.14v33.21h13.13v-37.9H56v-22L42.48,257.54Q34.22,247,14,233.53l18.2-16.7Q52.43,228.46,62,239.16l-4.13,3.94h21a145.08,145.08,0,0,0-9.38-16.89L92.39,217q10.32,14.25,13.7,23.45l-6.2,2.63h36l-9.76-2.63a122,122,0,0,0,10.7-24.21l28.7,6.57L165,224q-8.62,13.89-12.38,19.14h24.2v23.64H129.73v37.9H144V271.43h25.89V339H144v-9.76h-16.7q-6,24-27,36.77,46.9.76,82.93-2.43a121.68,121.68,0,0,0-4.88,12.94,100.13,100.13,0,0,0-3.56,14.07Q131.41,393,90.14,391.32Zm-54.23-97Q27.29,284,6.26,271.24l17.83-17.45q21.57,11.82,31,21.39Z"/><path class="cls-1" d="M217.35,367.31l-9.19-27.21q9.38-3.18,21.39-7.69V286.06H212.66V260.55h16.89v-41.1h25.33v41.1h15.38v25.51H254.88v36.4l15-6.19,6,24.21q-15.94,7.69-48.41,22.32Q220.54,365.82,217.35,367.31Zm53.48,28.33a69.31,69.31,0,0,0-6.29-12.1,63,63,0,0,0-8.35-11q20.07-3.75,29.08-10.32A26.68,26.68,0,0,0,295.41,347H280.77V285.5h98.51V347H357.89v18.39c0,2.51.15,4.07.47,4.69s1.09.94,2.34.94h4.88c1.25,0,2.12-.87,2.63-2.63s.87-5.75,1.12-12a44.91,44.91,0,0,0,10.32,5.44,64,64,0,0,0,12,3.94q-1.7,16.32-7.13,22.51Q379.66,394,368.58,394H356q-14.64,0-19.51-6.38Q332,381.95,332,365.81V347h-9.75q-3.19,18.39-13.33,28.9Q296.91,388.69,270.83,395.64Zm1.12-116V257.73h21.39a63.79,63.79,0,0,0-3.38-9.38l3.76-.75H275V226.77h39V217.2h26.83v9.57H384V247.6H368c-.63,1.25-1.5,2.94-2.63,5.07q-1.87,3.56-2.63,5.06H387v21.95Zm34.34,28.9h46.34v-6.76H306.29Zm0,22.14h46.34v-6.94H306.29Zm12.94-73h17.45c.13-.37.31-.94.57-1.69a82.1,82.1,0,0,0,3-8.44H315.67A52.15,52.15,0,0,1,319.23,257.73Z"/><path class="cls-1" d="M440.54,397a53.31,53.31,0,0,0-11.1-6.07q4-8,5.61-22,1.17-10.62,1.28-28.26l12.15.82q0,5.61-.47,15.88,2.69,8.06,6.54,12.38V334.83H432.6V322.57h19.73V311.83H435.28v-12h17.05V288h12.85V299.8h16.58v12H465.18v10.74h18.56v2.92q10.86-6.89,13.9-21.72H485.15V292.21h51.49c0,1.56,0,3.16-.11,4.79a209.93,209.93,0,0,1-1.64,21.6q-.93,7.25-3,9.58-2.57,3.15-7.82,4a82.85,82.85,0,0,1-13,.23,24.56,24.56,0,0,0-3.39-11.67,84.9,84.9,0,0,0,9.46.46,4.59,4.59,0,0,0,3.39-1.17q1.63-2.44,2.45-16.23H510.6q-4,21.72-19.62,31.65a66.85,66.85,0,0,0-7.24-6v5.37H466.93v12.73h15.41v12H466.93V378q8.06,2.68,23.82,2.69,34.1.47,50.56-.47A44.4,44.4,0,0,0,536.06,394H490.75q-17.52,0-27.09-3a33.65,33.65,0,0,1-17.75-13A85.84,85.84,0,0,1,440.54,397Zm47.64-23.36V336.82h45.66V373.6Zm13-11.09h18.92V348H501.14Z"/><path class="cls-1" d="M561.28,318.37V305.76h24.41a65.14,65.14,0,0,0-8.64-12.61l13.19-4.56q7.71,8.06,10.86,15.18l-5.49,2H631l-4.67-1.64A88.49,88.49,0,0,0,637,287.77l15.18,4.56q-6.07,8.18-10.63,13.43h25.34v12.61Zm29.31,78.82a39.76,39.76,0,0,0-4.44-11.79,98.08,98.08,0,0,0,10.51.11,1.65,1.65,0,0,0,1.87-1.86V371.5l-4.67,6.07a50.06,50.06,0,0,0-12.14-8.29v27.56h-13.2V326.31H612v57.57a18.45,18.45,0,0,1-1.05,7,8.08,8.08,0,0,1-4,4.08Q602.62,397.19,590.59,397.19ZM598.53,349V338H581.72V348.5l4.55-5.72A58.18,58.18,0,0,1,598.53,349Zm0,18.92V353.4l-4.09,5.49a50.77,50.77,0,0,0-12.72-7.82v14l3.62-4.44A56.28,56.28,0,0,1,598.53,367.88Zm22.31,7.24V327.48H634v47.64Zm13.07,22.07A45.14,45.14,0,0,0,629,384a109.74,109.74,0,0,0,13.9.23c1.63-.08,2.45-.78,2.45-2.1v-57.8H659v57.91a21.72,21.72,0,0,1-1.17,8.06,9.27,9.27,0,0,1-4.67,4.44Q647.93,397.19,633.91,397.19Z"/><path class="cls-1" d="M788.29,397q-17.4-2.58-28.26-9a49.41,49.41,0,0,1-17.63-18,39.41,39.41,0,0,1-15.65,16.35q-11.44,6.78-31.65,10.39a30.21,30.21,0,0,0-3-6.42,41.08,41.08,0,0,0-4.09-5.95q17.06-2.69,26.62-7.24,9-4.32,13.32-11.21H690.55V353.17h41.92a132.07,132.07,0,0,0,1.64-14.83h14.83q-.59,8.76-1.52,14.83h25.22A110.47,110.47,0,0,0,754,345.46l7-7.71q-7.69-.35-10.39-3.5c-1.63-1.94-2.45-5.53-2.45-10.74V309.73H736.21q-2,15.18-9.11,22.65-8.52,9.11-29.19,13.43a31.63,31.63,0,0,0-3.16-6,33,33,0,0,0-4.2-5.43q17.4-2.92,24.05-9,5.37-4.9,6.78-15.65h-15v11.56h-13.9V297.23h43v-9.34h14.13v9.34h43.67v21.49H778.6v-9H761.78v13.66c0,1.48.25,2.41.76,2.8a6.16,6.16,0,0,0,3.33.59h10a2.73,2.73,0,0,0,2.69-1.4q.69-1.41,1-6.31,4.08,2.81,11.68,4.32-1.07,8.42-4.09,11.56-2.93,2.93-9.81,2.92h-13a101.65,101.65,0,0,1,20.32,8.53l-6.08,6.77h15.65V365.9H755.24q12,14.72,41.81,17.28a42.11,42.11,0,0,0-4.91,6.48A43.27,43.27,0,0,0,788.29,397Z"/><path class="cls-1" d="M821.1,397.07V292.33h99.61V397.07H907.16v-4.2h-73v4.2Zm13.08-16.69h73V304.82H867.34l4.91.59-1.4,4.79h22.88v11h8.65v7.36H839.32v-7.36h16.11c.47-1.17,1-2.61,1.52-4.32H845.51V310.2h13.54c.16-.47.35-1.17.59-2.11.39-1.47.66-2.57.81-3.27H834.18Zm34.57-2.11v-6.65h-29v-7.47h7.59v-12h21.37v-3.51H845.62V331.68H896.3v16.93H881v3.51h16.93v7.24H881v4.79h21.48v7.47H881v6.65Zm-11.57-35.73h27v-4.79h-27Zm.7,21.61h10.87v-4.79H857.88Zm9.58-43h14.83v-4.32H868.86Z"/><path class="cls-1" d="M492.38,30l-15.15,3.47q-3.15-10.71-14.51-11.36-16.1,1-17,22.41.94,21.46,17,23,12.93-.3,15.14-15.46L493,56.81q-5.37,23.35-30.29,23.36Q430.53,78.58,429,44.51q1.57-34.08,33.77-36Q485.43,9.49,492.38,30Z"/><path class="cls-1" d="M586.09,9.48,571,79.22H553.28L542.55,34.73a40.6,40.6,0,0,1-1.26-7.89A32.41,32.41,0,0,1,540,34.73L528.66,79.22h-18.3L495.22,9.48h16.09l7.89,46.7a58.5,58.5,0,0,1,.63,6c0-.63.1.11.31,2.21h.32c.42-3.16.84-5.89,1.26-8.21l10.73-46.7h16.73l11.35,47.33a5.18,5.18,0,0,0,.32,1.27,39.71,39.71,0,0,1,.63,6.31h.32c.2-2.53.52-5.15.94-7.89l7.58-47Z"/><path class="cls-1" d="M646.05,79.22H591.46V9.48H645.1V22.42H607.23V37.57h35.35V50.5H607.23V66.91h38.82Z"/><path class="cls-1" d="M703.79,22.42H669.71V39.14h29.66V52.08H669.71V79.22H653.94V9.48h49.85Z"/><path class="cls-2" d="M462.31,112.88q29.35,1.89,31.56,33.76-1.59,31.25-31.87,32.82-30.3-1.59-31.55-32.82Q432,114.47,462.31,112.88Zm-.63,58.69q20.19-.94,21.15-24.93Q481.87,123,462,121.4q-19.87,1.57-21.14,25.24Q441.81,170,461.68,171.57Z"/><path class="cls-2" d="M505.55,113.83h11.67l32.82,53h.31v-53h9.47v64.68H548.46L515,125.19v53.32h-9.46Z"/><path class="cls-2" d="M618.19,178.51H574V113.83h9.78v57.11h34.39Z"/><path class="cls-2" d="M628.92,178.51V113.83h9.78v64.68Z"/><path class="cls-2" d="M653.85,113.83h11.68l32.81,53h.32v-53h9.46v64.68H696.76l-33.44-53.32v53.32h-9.47Z"/><path class="cls-2" d="M771.86,178.51H722.32V113.83H770.6V122H732.42v19.25h36v8.2h-36v21.14h39.44Z"/><rect class="cls-1" x="876.65" y="251.49" width="15.19" height="15.19"/><rect class="cls-1" x="906.36" y="251.08" width="15.19" height="15.19"/><rect class="cls-1" x="861.47" y="227.27" width="15.19" height="15.19"/><rect class="cls-1" x="861.47" y="266.68" width="15.19" height="15.19"/><rect class="cls-1" x="846.28" y="251.89" width="15.19" height="15.19"/><rect class="cls-1" x="815.9" y="235.91" width="15.19" height="15.19"/><polygon class="cls-2" points="921.46 243.5 906.58 243.5 906.58 76.57 921.46 91.45 921.46 243.5"/><polygon class="cls-2" points="851.66 23.39 715.5 23.39 715.5 8.51 837.01 8.51 851.66 23.39"/><polygon class="cls-1" points="851.36 9.2 920.71 9.2 920.71 75.76 851.36 9.2"/><rect class="cls-2" x="906.93" y="274.28" width="13.78" height="122.8"/><rect class="cls-2" x="654.04" y="8.51" width="51.32" height="14.87"/></svg>