<svg id="圖層_1" data-name="圖層 1" xmlns="http://www.w3.org/2000/svg" viewBox="0 0 1000 138"><defs><style>.cls-1{fill:#595757;}.cls-2{fill:#00a0e9;}.cls-3{fill:#ffd900;}</style></defs><polygon class="cls-1" points="496.18 85.24 488.71 73.22 481.96 73.22 481.96 101.66 488.1 101.66 488.1 83.21 496.02 95.24 496.18 95.24 504.19 83.09 504.19 101.66 510.4 101.66 510.4 73.22 503.66 73.22 496.18 85.24"/><path class="cls-2" d="M437.93,118.67a8.58,8.58,0,0,0-2.33-6.28c-1.78-1.78-4.45-2.75-7.89-2.75H415.32v27.11h6v-8.68h4.61l5.88,8.68h7l-6.62-9.68A8.42,8.42,0,0,0,437.93,118.67Zm-10.61,4.14h-6V115h5.92c2.91,0,4.69,1.31,4.69,3.87C431.89,121.26,430.22,122.81,427.32,122.81Z"/><polygon class="cls-2" points="455.89 121.1 448.77 109.64 442.34 109.64 442.34 136.75 448.19 136.75 448.19 119.17 455.74 130.63 455.89 130.63 463.52 119.05 463.52 136.75 469.44 136.75 469.44 109.64 463.01 109.64 455.89 121.1"/><polygon class="cls-1" points="407.12 28.5 407.12 0.75 401.01 0.75 401.01 11.73 389.76 11.73 389.76 0.75 383.65 0.75 383.65 28.5 389.76 28.5 389.76 17.36 401.01 17.36 401.01 28.5 407.12 28.5"/><rect class="cls-1" x="514.34" y="109.69" width="6.93" height="27.06"/><rect class="cls-1" x="514.34" y="0.75" width="6.93" height="64.23"/><rect class="cls-1" x="413.44" y="0.75" width="107.84" height="6.93"/><polygon class="cls-1" points="418.8 17.24 433.51 17.24 433.51 11.81 418.8 11.81 413.44 11.81 413.44 28.5 435.26 28.5 435.26 23.07 418.8 23.07 418.8 17.24"/><path class="cls-2" d="M57.05,75.47C50.76,77.23,44.47,79,38.18,80.59v33.94c0,8.63-1.76,13-6.73,15.65-5,2.78-12,3.22-22.53,3.22C8.48,128.86,6,121.7,3.8,117c5.85.3,12,.3,13.9.3,2.05,0,2.78-.73,2.78-2.93v-29l-15.65,4L0,72.11c5.85-1.17,13-2.78,20.48-4.68V42.27H1.61V25.89H20.48v-24h17.7v24H54.71V42.27H38.18V63.19l16.67-4.25Zm79.13-48.85H112.92V111.9c0,10.23-2.34,15.35-9.06,18.43s-16.39,3.51-30,3.51c-.73-5.42-4.1-14-6.88-19,9.07.59,20,.44,23,.44s4.09-.88,4.09-3.66v-85h-37V9.21h79.13Z"/><path class="cls-2" d="M166.49,55.43v79.28h-17V3.65h56.32V55.43Zm0-39.34v7.45h23V16.09Zm23,26.76v-8h-23v8Zm42.86,59v30.14H217.1V101.8h-14c-1.46,10.1-6.29,24.28-18.72,32.77a65.84,65.84,0,0,0-11.12-9.95c9.36-5.85,13.46-15.36,14.92-22.82H173.37V87.61h15.36v-11H173.22V62.89h75.19V76.64H232.32v11h16.09V101.8ZM217.1,87.61v-11H203.5v11Zm55.73,26.77c0,8.92-1.6,13.75-6.87,16.53-5.27,2.93-12.87,3.37-24,3.37A61.77,61.77,0,0,0,236.71,117c6.58.3,13.74.3,15.94.15,2.34,0,3.07-.88,3.07-2.92V55.73H215.49V3.65h57.34ZM232,16.09v7.45h23.7V16.09Zm23.7,27.06V34.81H232v8.34Z"/><path class="cls-2" d="M568.7,117.48c6.47-4.27,20.14-19.08,26.85-30H573.39V72.9h25.66V61.68H573V47.39h13.41c-.59-4.81-5.19-18.07-5.19-18.07H573V15.18h26.09V1.92h16.76V15.18h25.36V29.32H634s-5.49,13.7-7.53,18.07h14.72V61.68H615.81V72.9h24V87.47h-24v1.17c5.24,3.64,17.34,13.26,20.69,15.89l-10,12.38a139.71,139.71,0,0,0-10.64-11.36v31H599.05v-29.3a116.44,116.44,0,0,1-15.51,17.56Zm27-88.16a57.37,57.37,0,0,1,5,16l.39,2h10.31l1-2a108.48,108.48,0,0,0,5.39-16ZM707.34,64.74H693.49V136H676.73V64.74H661.86c-.14,21.71-3.2,52.47-22.44,72.43-2.19-3.79-8.46-9.76-12.39-11.8,16.76-17.78,18.51-42.56,18.51-62.67V16.16l10.2-2.27C669.59,10.54,688.67,5.51,697.56.7l9.05,14.19c-12.83,5.69-29.44,10.2-44.75,13.41V48.7h45.48Z"/><path class="cls-2" d="M799.74,99.28c9.62,13.41,26.53,19.53,53.64,21.13-3.79,4.08-8.17,11.52-10.5,16.62-27.69-3.36-44.45-11.52-55.53-27.84-7.14,12-23.9,22.74-61.06,28a91.81,91.81,0,0,0-9.92-14.57c37.32-5.1,51.31-14.14,56.12-23.32H720V84.7h54.65V76.11h17.49V84.7h57.28V99.28ZM718.27,60.07c7-.58,15.45-1.45,24.78-2.33V45.64h-20v-13h20v-9H720.6v-13h22.45V1.92h16v8.75h20.4v13h-20.4v9h18.51v13H759.08V56l20.69-2.18.15,7.72c14.87-8.74,18.36-22.15,19.53-40.52H782.84V6.44h65.44s0,4.66-.15,6.56c-1.31,35-2.77,49-6.56,53.78-2.91,3.79-6,5.1-10.2,5.68-3.64.58-9.77.58-16.18.58a35.07,35.07,0,0,0-4.52-15.44c5.25.43,9.91.43,12.1.43s3.21-.29,4.52-1.75c2-2.47,3.2-11.8,4.22-35.27H815.63c-1.75,24.63-7.14,42.71-28.28,54.08A42.39,42.39,0,0,0,780.07,65v2c-21.43,2.77-44,5.39-60.49,7.29Z"/><path class="cls-2" d="M971.14,1.48l13,5c-4.08,7.29-8.3,15.16-12,20.84L976,31.07l8.34-13.55,10.9,5.39c-5.83,9.18-12.83,19.82-19.24,28.42l8.75-.58c-.73-2-1.61-4.09-2.48-6l9.76-3.5c3.36,6.85,6.71,15.89,7.58,21.57l-10.35,4.37a56.94,56.94,0,0,0-1.16-5.68L977.26,63a56.83,56.83,0,0,1,11.08,9.18l-2.77,2.48h11.08V88.06H976.24l13.56,5.1a84.37,84.37,0,0,1-16.47,22.59c2.91,4.37,6.12,6.7,9.76,6.7s5-2.77,5.69-14.28A41.41,41.41,0,0,0,1000,116c-2.62,16.47-6.7,20.84-18.07,20.84-8.16,0-14.72-4.23-20-11.66a105.31,105.31,0,0,1-22,11.52,63.91,63.91,0,0,0-9-11.08,90.52,90.52,0,0,0,24.34-13.12,134.1,134.1,0,0,1-6.71-24.48H932.08c-.14,1.89-.43,3.79-.73,5.53,6.42,4.23,13.56,9.48,17.35,13.41l-9.33,11.52a91.35,91.35,0,0,0-11.22-9.91c-3.35,11.07-9,20.84-19.39,28-1.89-3.5-6.26-8.89-9.76-11.37,12.82-8.6,16.47-22.44,17.92-37.16h-9V81.5l-5.83,8.6c-1.46-4.38-4.37-11.08-7.29-17.49v64.13H879.32V83c-3.35,10.63-7.29,20.4-11.66,27.4a98.31,98.31,0,0,0-7.28-14.72C868,84.12,874.8,63.86,878.16,46.52H863.73V30.78h15.59V1.92h15.45V30.78h13c-1-1-2.18-1.9-3.2-2.77L911,18.54l9.62-16.91,12.18,5.6c-4.08,7-7.66,14.37-11.16,20.2,1.31,1.31,2.62,2.62,3.64,3.78l8.43-13.64,8.77,4.32c-.15-6.85-.29-13.85-.29-20h15.3c-.14,7.14-.14,15,0,22.74l4.23-6.12,9.47-17.06M946.22,74.65c-.29-3.06-.73-6.27-1.17-9.48l-9.91,3.94c-.14-1.31-.29-2.77-.58-4.37-9.47,1-18.51,2.18-26.67,3.06L905.56,55l4.51-.29c2.77-3.79,5.83-8.16,8.75-12.83A93.77,93.77,0,0,0,908,31.07V46.52H894.77v6.27c3.06,4.51,10.06,15.74,13.56,21.86Zm-7.29-31.19a87.19,87.19,0,0,1,5.69,16.32c-1-10.64-1.75-21.86-2-33.52-5.83,9-12.68,19.24-19,27.4l7.87-.58c-.73-2.33-1.46-4.52-2.33-6.56Zm23,8.89c2.33-3.06,4.81-6.71,7.29-10.5a99.4,99.4,0,0,0-11.66-11.8c.14,7.87.58,15.3,1.16,22.59Zm11.66,22.3a81.16,81.16,0,0,0-7-5.4l6.56-5.68c-4.52.44-8.74,1-12.82,1.46L959.48,61c.44,4.81,1,9.33,1.75,13.7ZM963.56,88.06c1,4.81,2.19,9.32,3.36,13.26a60.39,60.39,0,0,0,8.45-13.26Z"/><path class="cls-1" d="M368.62,54.66h-4.17V64.6h-6.83V36.79h11a9.16,9.16,0,0,1,7,2.64,9.08,9.08,0,0,1,0,12.58A9.17,9.17,0,0,1,368.62,54.66Zm-.31-11.74h-3.86v5.61h3.86a2.86,2.86,0,0,0,2.16-.83,2.83,2.83,0,0,0,0-3.94A2.83,2.83,0,0,0,368.31,42.92Z"/><path class="cls-1" d="M422,64.8a20,20,0,0,1-6-.8,11,11,0,0,1-4.55-2.87l4.37-4.36a6.16,6.16,0,0,0,2.68,1.48,13,13,0,0,0,3.53.46q4,0,4-2.49a2.08,2.08,0,0,0-.41-1.48,2.73,2.73,0,0,0-.83-.63,3.82,3.82,0,0,0-1.14-.27l-3.35-.47a9.51,9.51,0,0,1-5.6-2.48,7.6,7.6,0,0,1-1.89-5.55A8.1,8.1,0,0,1,415.52,39a10.66,10.66,0,0,1,7.41-2.46,16.58,16.58,0,0,1,5.33.76,10.45,10.45,0,0,1,4,2.55L428,44.17A5.2,5.2,0,0,0,426.09,43a8,8,0,0,0-2.85-.43h-.5a3.63,3.63,0,0,0-2.52.76,2.35,2.35,0,0,0-.84,1.81,1.68,1.68,0,0,0,.14.72,2,2,0,0,0,.43.59,2.88,2.88,0,0,0,.72.51,3.56,3.56,0,0,0,1.17.29l3.36.47c2.44.33,4.14,1,5.11,1.93a7.46,7.46,0,0,1,1.93,2.92,11.64,11.64,0,0,1,.48,3.53,7.62,7.62,0,0,1-3.06,6.4A12.26,12.26,0,0,1,422,64.8Z"/><path class="cls-1" d="M371.09,6.77V28.5h-6.82V6.77h-6.83V.68h20.48V6.77Z"/><path class="cls-1" d="M449.49,42.64V64.37h-6.83V42.64h-6.82V36.56h20.48v6.08Z"/><path class="cls-1" d="M368.79,91.36h-4.24v10.1h-6.93V73.22h11.17a9.32,9.32,0,0,1,7.07,2.67,9.26,9.26,0,0,1,0,12.78A9.32,9.32,0,0,1,368.79,91.36Zm-.32-11.92h-3.92v5.7h3.92a2.88,2.88,0,0,0,2.2-.85,2.87,2.87,0,0,0,0-4A2.88,2.88,0,0,0,368.47,79.44Z"/><path class="cls-1" d="M391.94,91.44l-2.38-7.53L387,91.44l-1.94,5.78-1.39,4.24h-7.25l10.26-28.24h5.35l10.26,28.24h-7.25l-1.31-4.24Z"/><path class="cls-1" d="M421,101.46l-9-14.18v14.18H405V73.22h6.06l9,14.18V73.22H427v28.24Z"/><path class="cls-2" d="M373.4,137.32l-9-14.18v14.18h-6.93V109.07h6.06l9,14.18V109.07h6.93v28.25Z"/><path class="cls-1" d="M450.4,98.68a8.9,8.9,0,0,1-3.37,2.09,12.78,12.78,0,0,1-4.24.69H432.33V73.22h10.46a12.78,12.78,0,0,1,4.26.67A8.76,8.76,0,0,1,450.41,76a9.44,9.44,0,0,1,2.18,3.33,17.63,17.63,0,0,1,.74,6v4.12a22.85,22.85,0,0,1-.5,5.3A8.63,8.63,0,0,1,450.4,98.68ZM445.64,81a3.36,3.36,0,0,0-1.29-1.2,4.52,4.52,0,0,0-2-.39h-3V95.28h3a4.27,4.27,0,0,0,2-.42,3.44,3.44,0,0,0,1.29-1.13,4.09,4.09,0,0,0,.64-1.8c.09-.73.13-2.26.13-4.59a43.88,43.88,0,0,0-.15-4.59A4.17,4.17,0,0,0,445.64,81Z"/><path class="cls-1" d="M469.08,91.44l-2.38-7.53-2.53,7.53-1.94,5.78-1.39,4.24h-7.25l10.26-28.24h5.35l10.26,28.24h-7.25l-1.31-4.24Z"/><path class="cls-2" d="M514.34,101.46V73.22h6.94v28.24Z"/><path class="cls-1" d="M536,101.66a10.05,10.05,0,0,1-10.26-7.59,40.56,40.56,0,0,1-.43-6.75,42.61,42.61,0,0,1,.41-6.83,7.6,7.6,0,0,1,2.2-4.1,11.68,11.68,0,0,1,3.74-2.6A11.3,11.3,0,0,1,536,73a10.64,10.64,0,0,1,7,2.42,11.17,11.17,0,0,1,3.65,7.09h-7A5.67,5.67,0,0,0,538.44,80a3.09,3.09,0,0,0-2.42-.88,4,4,0,0,0-1.62.3,2.85,2.85,0,0,0-1.15.93,5,5,0,0,0-.75,2,28.53,28.53,0,0,0-.28,4.89,32.14,32.14,0,0,0,.24,4.89,5.1,5.1,0,0,0,1,2.28,3,3,0,0,0,2.57,1,3.46,3.46,0,0,0,2.4-.73,4.4,4.4,0,0,0,1.21-2h7a10.26,10.26,0,0,1-3.63,6.61A11,11,0,0,1,536,101.66Z"/><path class="cls-1" d="M395.56,36.79a14,14,0,0,0-14.42,14c0,7.78,6,14,14.35,14s14.42-6.3,14.42-14S403.92,36.79,395.56,36.79Zm0,21.62a7.37,7.37,0,0,1-7.34-7.62c0-4.22,3-7.61,7.27-7.61a7.36,7.36,0,0,1,7.34,7.61C402.83,55,399.85,58.41,395.56,58.41Z"/><path class="cls-2" d="M397.48,109.2c-8.36,0-14.43,6.3-14.43,14s6,14,14.35,14,14.42-6.3,14.42-14S405.83,109.2,397.48,109.2Zm0,21.61a7.35,7.35,0,0,1-7.33-7.61c0-4.23,3-7.62,7.26-7.62a7.36,7.36,0,0,1,7.34,7.62C404.74,127.42,401.76,130.81,397.47,130.81Z"/><rect class="cls-3" x="357.44" y="116.05" width="6.85" height="6.85"/><rect class="cls-2" x="350.58" y="116.05" width="6.85" height="6.85"/><rect class="cls-2" x="343.73" y="122.91" width="6.85" height="6.85"/><rect class="cls-2" x="330.02" y="109.2" width="6.85" height="6.85"/><path class="cls-1" d="M313.14,21.21c0,8.2-1.18,20-8.24,26.93a23.74,23.74,0,0,0-4.36-4.09,23.3,23.3,0,0,0,5.89-11.88c-1.89,1.18-3.79,2.3-5.63,3.33l-1.74-5.74c2.1-.92,5.07-2.35,8.19-3.84.05-1.63.1-3.27.1-4.76V19.73L303,22a45.63,45.63,0,0,0-3.43-9.72l4.4-2.15a42,42,0,0,1,3.43,8.14V6h15.36V.68h6.45V6h18v5.42h-34Zm30,8.45a25.27,25.27,0,0,1-8,11.16A51.53,51.53,0,0,0,348,43a23,23,0,0,0-3.58,5.48c-6.25-.66-11.27-1.94-15.36-4a54,54,0,0,1-14.39,4,21.47,21.47,0,0,0-2.71-5,48.81,48.81,0,0,0,11.88-2.66,25.23,25.23,0,0,1-5.17-6.7l-.48-1h-2V28.23h.3a23.14,23.14,0,0,0-3.32-3.84c5.78-1.69,6.5-3.79,6.5-6.35v-4.4h19v7c0,1.23.11,1.38.87,1.38h1.9c.77,0,1-.61,1.07-4.3a17.31,17.31,0,0,0,5,2.1c-.51,5.53-1.84,7-5.38,7h-3.68c-4.41,0-5.69-1.39-5.69-6.1V18.6h-7.42c-.1,3.64-1.43,7.27-6.71,9.63h19.66L339.3,28Zm-18.69,3.48a15.16,15.16,0,0,0,4.92,5,19.83,19.83,0,0,0,5.37-5Z"/><path class="cls-1" d="M315.8,66.54a71.67,71.67,0,0,1-3.89,6.19V101.5h-5.68V79.59a45,45,0,0,1-4,3.79,36.94,36.94,0,0,0-3.17-5.68,43.11,43.11,0,0,0,11.42-13.16Zm-.87-10.81a63.11,63.11,0,0,1-12.24,12.5,46,46,0,0,0-3.17-4.46,43,43,0,0,0,10-10.13Zm28.36,25.81a28,28,0,0,1-7.78,11.06,45.8,45.8,0,0,0,12.75,3.73,22.83,22.83,0,0,0-3.64,5.23,41.65,41.65,0,0,1-14.13-5.38A50,50,0,0,1,316,101.66a19.78,19.78,0,0,0-2.91-5.17,44.22,44.22,0,0,0,12.59-4,27.58,27.58,0,0,1-4-4.45A50,50,0,0,1,317,91.21a36.27,36.27,0,0,0-3.94-4.5,33,33,0,0,0,11.41-9.47l-10.24.3-.51-5.37c2.31,0,5,0,7.89,0,.71-.62,1.48-1.28,2.2-2a59.13,59.13,0,0,0-9-7.27L318.46,59c.87.56,1.85,1.18,2.82,1.84a52.67,52.67,0,0,0,5.48-7.42L332,56.09c-2.2,2.67-4.71,5.43-6.86,7.58,1.07.87,2.1,1.74,2.92,2.56a92.59,92.59,0,0,0,8.24-9.06l5.38,3A165.75,165.75,0,0,1,329.16,72l9.17-.16c-.82-1.18-1.69-2.25-2.56-3.28L340.48,66c3,3.33,6.35,7.94,7.78,11.22l-5.12,2.86a29.44,29.44,0,0,0-1.69-3.38c-3.38.16-6.86.26-10.19.36-.61,1-1.28,2-2,3h9.26l1-.2Zm-17.92,3.12a24,24,0,0,0,5.07,5,22.92,22.92,0,0,0,4.92-5h-9.93Z"/></svg>