<svg id="圖層_1" data-name="圖層 1" xmlns="http://www.w3.org/2000/svg" viewBox="0 0 200 200"><defs><style>.cls-1{fill:none;stroke:#000;stroke-linecap:round;stroke-linejoin:round;stroke-width:4.53px;}</style></defs><path class="cls-1" d="M85.11,15.34H22.74A7.74,7.74,0,0,0,15,23.08V48.15a7.73,7.73,0,0,0,7.74,7.74H41a3.4,3.4,0,0,1,2.95,1.71l7.92,13.7a2.38,2.38,0,0,0,4.13,0L63.9,57.6a3.41,3.41,0,0,1,3-1.71H85.11a7.74,7.74,0,0,0,7.74-7.74V23.08A7.75,7.75,0,0,0,85.11,15.34Z"/><path class="cls-1" d="M108.72,92.44h-79A14.76,14.76,0,0,0,15,107.2v40A14.76,14.76,0,0,0,29.76,162h0a2.09,2.09,0,0,1,2.06,2.44l-3,18.23a1.71,1.71,0,0,0,2.85,1.52l23.23-21.63A2.11,2.11,0,0,1,56.3,162h52.42a14.76,14.76,0,0,0,14.76-14.76v-40A14.76,14.76,0,0,0,108.72,92.44Z"/><line class="cls-1" x1="28.13" y1="29.87" x2="79.58" y2="29.87"/><line class="cls-1" x1="28.13" y1="42.66" x2="53.86" y2="42.66"/><line class="cls-1" x1="101.36" y1="79.22" x2="171.71" y2="79.22"/><line class="cls-1" x1="34.09" y1="111.52" x2="104.45" y2="111.52"/><line class="cls-1" x1="34.09" y1="127.67" x2="104.45" y2="127.67"/><line class="cls-1" x1="34.09" y1="143.83" x2="69.24" y2="143.83"/><line class="cls-1" x1="136.53" y1="95.37" x2="171.71" y2="95.37"/><path class="cls-1" d="M123.48,124.64h24.91a2.25,2.25,0,0,1,1.53.59l20.22,18.51a1.37,1.37,0,0,0,2.27-1.22L170,127.27a2.28,2.28,0,0,1,2.25-2.63h0A12.79,12.79,0,0,0,185,111.85V76.36a12.78,12.78,0,0,0-12.78-12.78H101A12.78,12.78,0,0,0,88.26,76.36V92.44"/></svg>