<svg id="圖層_1" data-name="圖層 1" xmlns="http://www.w3.org/2000/svg" viewBox="0 0 200 200"><defs><style>.cls-1{fill:none;stroke:#000;stroke-linecap:round;stroke-linejoin:round;stroke-width:4.5px;}</style></defs><polygon class="cls-1" points="25.41 40.48 10 106.51 25.24 115.16 56.02 64.44 25.41 40.48"/><polygon class="cls-1" points="174.59 39.74 190 105.77 174.76 114.42 143.98 63.7 174.59 39.74"/><line class="cls-1" x1="28.32" y1="110.09" x2="37.14" y2="116.94"/><path class="cls-1" d="M53.14,69.19,90.3,65.4a9.54,9.54,0,0,1,4.2.53l4.73,1.74"/><line class="cls-1" x1="169.15" y1="105.19" x2="155.22" y2="119.77"/><path class="cls-1" d="M112.27,105.82l31.19,22.38A7.63,7.63,0,0,0,153.68,127h0a7.63,7.63,0,0,0-.92-10.89L111,81.76h0a24,24,0,0,1-7.93,3.78h0a35.57,35.57,0,0,1-14.84.76L86.54,86a9.91,9.91,0,0,1-6.43-3.93h0A2.88,2.88,0,0,1,81,77.87l22.31-12.5a11.29,11.29,0,0,1,9.16-.83l13.84,4.74a16.89,16.89,0,0,0,11.6-.25l7.71-3"/><path class="cls-1" d="M104.43,120.24l28.6,20a7.88,7.88,0,0,0,10.72-1.57h0a7.89,7.89,0,0,0-1.57-11.29l-27.8-20.08"/><path class="cls-1" d="M95.78,133.32l25.21,17a7.56,7.56,0,0,0,10.32-1.82h0a7.55,7.55,0,0,0-1.77-10.62l-24.22-17"/><path class="cls-1" d="M92.58,151.59l13.85,7.69a7.8,7.8,0,0,0,10.38-2.66h0A7.81,7.81,0,0,0,114.58,146L98,134.79"/><rect class="cls-1" x="38.16" y="106.53" width="15.51" height="25.97" rx="7.75" transform="translate(104.91 5.89) rotate(48.45)"/><rect class="cls-1" x="51.45" y="112.14" width="16.13" height="32.94" rx="8.06" transform="matrix(-0.66, -0.75, 0.75, -0.66, 2.73, 258.45)"/><rect class="cls-1" x="63.75" y="124.05" width="15.63" height="30.19" rx="7.82" transform="translate(128.23 -6.71) rotate(48.45)"/><rect class="cls-1" x="76.96" y="136.4" width="15.51" height="23.79" rx="7.76" transform="translate(29.91 310.06) rotate(-131.55)"/></svg>